<svg xmlns="http://www.w3.org/2000/svg" width="14.067" height="13.079" viewBox="0 0 14.067 13.079">
    <g data-name="*ic_right_end">
        <path data-name="Path 994" d="M.239 0C.2-.014.094.043.047.12A.333.333 0 0 0 .1.525l6.266 5.667-6.273 5.855a.333.333 0 0 0-.044.407.212.212 0 0 0 .335.053l6.523-6.089a.33.33 0 0 0 0-.463L.381.06A.212.212 0 0 0 .239 0z" transform="translate(.272 .261)" style="stroke:#000;stroke-width:.5px"/>
        <path data-name="Path 995" d="M.239 0C.2-.014.094.043.047.12A.333.333 0 0 0 .1.525l6.266 5.667-6.273 5.855a.333.333 0 0 0-.044.407.212.212 0 0 0 .335.053l6.523-6.089a.33.33 0 0 0 0-.463L.381.06A.212.212 0 0 0 .239 0z" transform="translate(6.817 .261)" style="stroke:#000;stroke-width:.5px"/>
    </g>
</svg>
