<svg xmlns="http://www.w3.org/2000/svg" width="22.115" height="19.362" viewBox="0 0 22.115 19.362">
    <path d="m46.976 29.184-.235-.235c-5.57-5.805-8.678-9.149-9.382-10.149a5.317 5.317 0 0 1-1.29-3.167 5.6 5.6 0 0 1 5.806-5.454c1.583 0 3.284 1.056 5.1 3.108 1.818-2.053 3.519-3.108 5.1-3.108a5.677 5.677 0 0 1 5.806 5.454 5.64 5.64 0 0 1-1.407 3.225c-.762.938-3.87 4.34-9.265 10.086zm-5.1-18.472a5.052 5.052 0 0 0-5.219 4.867 5.033 5.033 0 0 0 1.173 2.873c.7.938 3.753 4.281 9.148 9.852 5.278-5.571 8.327-8.914 9.031-9.852a4.739 4.739 0 0 0 1.29-2.815 5.052 5.052 0 0 0-5.219-4.867c-1.466 0-3.108 1.056-4.867 3.167l-.235.235-.235-.235c-1.759-2.17-3.4-3.225-4.867-3.225z" transform="translate(-35.919 -10.034)" style="fill:#fff;stroke:#fff;stroke-width:.3px"/>
</svg>
