<svg xmlns="http://www.w3.org/2000/svg" width="18.502" height="18.708" viewBox="0 0 18.502 18.708">
    <path data-name="Path 153" d="M118.785 39.193a.212.212 0 0 0-.172.212v2.408a6.892 6.892 0 0 0-2.137 1.244l-2.1-1.211a.212.212 0 0 0-.291.079l-2.11 3.645a.212.212 0 0 0 .079.291l2.1 1.211a6.024 6.024 0 0 0 0 2.448l-2.1 1.211a.212.212 0 0 0-.079.291l2.11 3.645a.212.212 0 0 0 .291.079l2.1-1.211a6.893 6.893 0 0 0 2.137 1.244v2.408a.212.212 0 0 0 .212.212h4.234a.212.212 0 0 0 .212-.212v-2.406a6.892 6.892 0 0 0 2.137-1.244l2.1 1.211a.212.212 0 0 0 .291-.079l2.11-3.645a.212.212 0 0 0-.079-.291l-2.1-1.211a6.023 6.023 0 0 0 0-2.448l2.1-1.211a.212.212 0 0 0 .079-.291l-2.11-3.645a.212.212 0 0 0-.291-.079l-2.1 1.211a6.893 6.893 0 0 0-2.137-1.244v-2.41a.212.212 0 0 0-.212-.212h-4.274zm.251.423h3.811v2.329a.212.212 0 0 0 .146.2 6.5 6.5 0 0 1 2.263 1.323.211.211 0 0 0 .245.026l2.038-1.171 1.9 3.275-2.031 1.171a.212.212 0 0 0-.1.225 6.486 6.486 0 0 1 0 2.607.212.212 0 0 0 .1.225L129.436 51l-1.9 3.275L125.5 53.1a.211.211 0 0 0-.245.026 6.507 6.507 0 0 1-2.263 1.323.212.212 0 0 0-.146.2v2.329h-3.811v-2.33a.212.212 0 0 0-.146-.2 6.507 6.507 0 0 1-2.263-1.323.211.211 0 0 0-.245-.026l-2.038 1.171-1.896-3.27 2.031-1.171a.212.212 0 0 0 .1-.225 6.486 6.486 0 0 1 0-2.607.212.212 0 0 0-.1-.225l-2.031-1.172 1.9-3.275 2.038 1.171a.212.212 0 0 0 .245-.026 6.5 6.5 0 0 1 2.263-1.323.212.212 0 0 0 .146-.2zm1.905 5.5a3.176 3.176 0 1 0 3.176 3.176 3.179 3.179 0 0 0-3.176-3.171zm0 .423a2.752 2.752 0 1 1-2.752 2.752 2.749 2.749 0 0 1 2.752-2.746z" transform="translate(-111.69 -38.943)" style="stroke:#000;stroke-width:.5px"/>
</svg>
