<svg id="detail_BTN" xmlns="http://www.w3.org/2000/svg" width="12" height="12" viewBox="0 0 12 12">
  <defs>
    <style>
      .cls-1 {
        fill: none;
      }

      .cls-2 {
        stroke: #000;
        stroke-width: 0.5px;
      }

      .cls-3, .cls-4 {
        stroke: none;
      }

      .cls-4 {
        fill: #000;
      }
    </style>
  </defs>
  <g id="패스_127" data-name="패스 127" class="cls-1">
    <path class="cls-3" d="M6,0A6,6,0,1,1,0,6,6,6,0,0,1,6,0Z"/>
    <path class="cls-4" d="M 6 0.5 C 2.967289924621582 0.5 0.5 2.967289924621582 0.5 6 C 0.5 9.032710075378418 2.967289924621582 11.5 6 11.5 C 9.032710075378418 11.5 11.5 9.032710075378418 11.5 6 C 11.5 2.967289924621582 9.032710075378418 0.5 6 0.5 M 6 0 C 9.31371021270752 0 12 2.68628978729248 12 6 C 12 9.31371021270752 9.31371021270752 12 6 12 C 2.68628978729248 12 0 9.31371021270752 0 6 C 0 2.68628978729248 2.68628978729248 0 6 0 Z"/>
  </g>
  <path id="패스_201" data-name="패스 201" class="cls-2" d="M2.379,4.926a.185.185,0,0,0-.038-.258L.491,3.059,2.343,1.331a.185.185,0,0,0-.225-.293L.072,2.915a.185.185,0,0,0,0,.295L2.12,4.963A.329.329,0,0,0,2.379,4.926Z" transform="translate(3.004 7.862) rotate(-90)"/>
</svg>
