<svg xmlns="http://www.w3.org/2000/svg" width="17.4" height="17.397" viewBox="0 0 17.4 17.397">
    <path data-name="Path 154" d="M171.442 89.6h-11.177a2.913 2.913 0 0 0-2.91 2.908v11.179a2.912 2.912 0 0 0 2.91 2.91h11.177a2.915 2.915 0 0 0 2.913-2.91V92.51a2.915 2.915 0 0 0-2.913-2.908zm2.414 14.089a2.414 2.414 0 0 1-2.414 2.412h-11.177a2.417 2.417 0 0 1-2.414-2.412v-11.18a2.417 2.417 0 0 1 2.414-2.407h11.177a2.414 2.414 0 0 1 2.414 2.412z" transform="translate(-157.155 -89.402)" style="stroke-width:.4px;stroke:#000"/>
    <path data-name="Path 155" d="M245.465 172.87a4.781 4.781 0 1 0 3.373 1.4 4.774 4.774 0 0 0-3.373-1.4zm0 9.051a4.287 4.287 0 1 1 3.021-1.257 4.277 4.277 0 0 1-3.021 1.257z" transform="translate(-236.764 -168.946)" style="stroke-width:.4px;stroke:#000"/>
    <path data-name="Path 156" d="M432.511 137.14a1.317 1.317 0 1 0 .932.384 1.314 1.314 0 0 0-.932-.384zm0 2.131a.817.817 0 1 1 .579-.238.817.817 0 0 1-.579.238z" transform="translate(-418.754 -134.814)" style="stroke-width:.2px;stroke:#000"/>
</svg>
