<svg xmlns="http://www.w3.org/2000/svg" width="21.3" height="18.652" viewBox="0 0 21.3 18.652">
    <path d="m46.569 28.474-.226-.226c-5.363-5.589-8.355-8.806-9.032-9.766a5.119 5.119 0 0 1-1.242-3.048 5.393 5.393 0 0 1 5.589-5.25c1.524 0 3.161 1.016 4.911 2.992 1.75-1.976 3.387-2.992 4.911-2.992a5.465 5.465 0 0 1 5.589 5.25 5.429 5.429 0 0 1-1.355 3.1c-.734.9-3.726 4.178-8.919 9.71zm-4.911-17.782a4.863 4.863 0 0 0-5.024 4.685 4.845 4.845 0 0 0 1.129 2.766c.677.9 3.613 4.121 8.806 9.484 5.081-5.363 8.016-8.581 8.693-9.484a4.562 4.562 0 0 0 1.242-2.71 4.863 4.863 0 0 0-5.024-4.685c-1.411 0-2.992 1.016-4.685 3.048l-.226.226-.226-.226c-1.693-2.089-3.274-3.1-4.685-3.1z" transform="translate(-35.919 -10.034)" style="stroke:#000;stroke-width:.3px"/>
</svg>
