<svg xmlns="http://www.w3.org/2000/svg" width="24" height="24" viewBox="0 0 24 24">
    <g data-name="*ic_search">
        <path data-name="Rectangle 1715" style="fill:none" d="M0 0h24v24H0z"/>
        <g data-name="Group 1530">
            <g data-name="Path 113" style="fill:none">
                <path d="M8.1 0A8.1 8.1 0 1 1 0 8.1 8.1 8.1 0 0 1 8.1 0z" style="stroke:none" transform="translate(3 3)"/>
                <path d="M8.096 1A7.104 7.104 0 0 0 1 8.096a7.104 7.104 0 0 0 7.096 7.096 7.104 7.104 0 0 0 7.096-7.096A7.104 7.104 0 0 0 8.096 1m0-1a8.096 8.096 0 1 1 0 16.192A8.096 8.096 0 0 1 8.096 0z" style="fill:#fff;stroke:none" transform="translate(3 3)"/>
            </g>
            <path data-name="Path 114" d="m1 1 5 5" transform="translate(15.9 15)" style="stroke:#fff;stroke-linecap:round;fill:none"/>
        </g>
    </g>
</svg>
