<svg xmlns="http://www.w3.org/2000/svg" width="90" height="66" viewBox="0 0 90 66">
    <defs>
        <clipPath id="p7hir9haaa">
            <path data-name="사각형 2027" style="fill:none" d="M0 0h34.635v44.219H0z"/>
        </clipPath>
    </defs>
    <path data-name="사각형 1611" style="fill:#f8f8f8" d="M0 0h90v66H0z"/>
    <path data-name="사각형 2029" transform="translate(22.001 10)" style="opacity:.5;fill:none" d="M0 0h46v46H0z"/>
    <g data-name="그룹 1570" transform="translate(27.666 10.687)" style="clip-path:url(#p7hir9haaa)">
        <path data-name="패스 1641" d="M33.8 7.782h-8.819A5.42 5.42 0 0 0 26.7 5.064a3.661 3.661 0 0 0-.617-3.227A3.715 3.715 0 0 0 23.094.5a5.816 5.816 0 0 0-5.449 4.184l-.14.465-.143-.449A5.8 5.8 0 0 0 11.913.511a3.725 3.725 0 0 0-2.992 1.334A3.644 3.644 0 0 0 8.3 5.072a5.485 5.485 0 0 0 1.726 2.718H1.209a.726.726 0 0 0-.709.737v4.324a.725.725 0 0 0 .709.737H2.25v29.746a.725.725 0 0 0 .709.737h29.094a.725.725 0 0 0 .708-.737V13.579H33.8a.725.725 0 0 0 .709-.737V8.519a.726.726 0 0 0-.709-.737M19.022 5.063A4.445 4.445 0 0 1 23.1 1.976a2.37 2.37 0 0 1 1.9.8 2.156 2.156 0 0 1 .333 1.908 4.106 4.106 0 0 1-1.509 2.166 4.269 4.269 0 0 1-2.565.921h-2.933zm-3.427 8.509 3.828.005v4.763l-1.25-1.217a.8.8 0 0 0-1.1-.026l-1.482 1.336zm3.828-1.472h-3.828V9.492h3.828zm-9.74-7.413a2.152 2.152 0 0 1 .333-1.908 2.368 2.368 0 0 1 1.9-.8 4.437 4.437 0 0 1 4.074 3.087l.686 2.718h-2.928a4.326 4.326 0 0 1-2.556-.928 4.1 4.1 0 0 1-1.509-2.169M1.918 12.1V9.247h12.04V12.1zm1.749 30.482V13.571h10.29v6.72a.86.86 0 0 0 .474.771.808.808 0 0 0 .153.045h.375a.808.808 0 0 0 .348-.172l2.285-2.051 2.087 2.034a.785.785 0 0 0 .317.189h.477a.906.906 0 0 0 .09-.027.85.85 0 0 0 .491-.783v-6.718h10.282v27.793l.007 1.21zM33.094 12.1H21.055V9.247h12.04z" transform="translate(-.188 -.176)" style="fill:#040405"/>
        <path data-name="패스 1642" d="M33.8 7.782h-8.819A5.42 5.42 0 0 0 26.7 5.064a3.661 3.661 0 0 0-.617-3.227A3.715 3.715 0 0 0 23.094.5a5.816 5.816 0 0 0-5.449 4.184l-.14.465-.143-.449A5.8 5.8 0 0 0 11.913.511a3.725 3.725 0 0 0-2.992 1.334A3.644 3.644 0 0 0 8.3 5.072a5.485 5.485 0 0 0 1.726 2.718H1.209a.726.726 0 0 0-.709.737v4.324a.725.725 0 0 0 .709.737H2.25v29.746a.725.725 0 0 0 .709.737h29.094a.725.725 0 0 0 .708-.737V13.579H33.8a.725.725 0 0 0 .709-.737V8.519a.726.726 0 0 0-.709-.737zM19.022 5.063A4.445 4.445 0 0 1 23.1 1.976a2.37 2.37 0 0 1 1.9.8 2.156 2.156 0 0 1 .333 1.908 4.106 4.106 0 0 1-1.509 2.166 4.269 4.269 0 0 1-2.565.921h-2.933zm-3.427 8.509 3.828.005v4.763l-1.25-1.217a.8.8 0 0 0-1.1-.026l-1.482 1.336zm3.828-1.472h-3.828V9.492h3.828zm-9.74-7.413a2.152 2.152 0 0 1 .333-1.908 2.368 2.368 0 0 1 1.9-.8 4.437 4.437 0 0 1 4.074 3.087l.686 2.718h-2.928a4.326 4.326 0 0 1-2.556-.928 4.1 4.1 0 0 1-1.509-2.169zM1.918 12.1V9.247h12.04V12.1zm1.749 30.482V13.571h10.29v6.72a.86.86 0 0 0 .474.771.808.808 0 0 0 .153.045h.375a.808.808 0 0 0 .348-.172l2.285-2.051 2.087 2.034a.785.785 0 0 0 .317.189h.477a.906.906 0 0 0 .09-.027.85.85 0 0 0 .491-.783v-6.718h10.282v27.793l.007 1.21zM33.094 12.1H21.055V9.247h12.04z" transform="translate(-.188 -.176)" style="stroke:#f8f8f8;stroke-width:.4px;fill:none"/>
        <path data-name="패스 1643" d="M22.692 26.438a.721.721 0 0 0 .148.044h.367a.783.783 0 0 0 .338-.168l2.229-2 2.035 1.986a.765.765 0 0 0 .31.184h.464a.738.738 0 0 0 .567-.79v-12.2h-4.391v.006h-2.53v12.186a.837.837 0 0 0 .463.752m1.135-11.283h3.733v8.629L26.34 22.6a.782.782 0 0 0-1.07-.025l-1.445 1.3z" transform="translate(-8.372 -4.746)" style="fill:#00bab4"/>
        <path data-name="패스 1644" d="M24.168 15.067h4.709v11.2l-1.538-1.541a.966.966 0 0 0-1.349-.032l-1.822 1.691z" transform="translate(-9.204 -6.326)" style="fill:#f8f8f8"/>
    </g>
</svg>
