<svg xmlns="http://www.w3.org/2000/svg" width="75" height="75" viewBox="0 0 75 75">
    <defs>
        <clipPath id="qhyw6uz1xb">
            <path data-name="사각형 1917" style="fill:none" d="M0 0h30v18.107H0z"/>
        </clipPath>
        <filter id="on3eixfu1a" x="0" y="0" width="75" height="75" filterUnits="userSpaceOnUse">
            <feOffset/>
            <feGaussianBlur stdDeviation="5" result="blur"/>
            <feFlood flood-opacity=".102"/>
            <feComposite operator="in" in2="blur"/>
            <feComposite in="SourceGraphic"/>
        </filter>
    </defs>
    <g data-name="*ic_recycleing">
        <g style="filter:url(#on3eixfu1a)">
            <circle data-name="타원 273" cx="22.5" cy="22.5" r="22.5" transform="translate(15 15)" style="fill:#fff"/>
        </g>
        <g data-name="그룹 1602">
            <g data-name="그룹 1568" transform="translate(23 28)" style="clip-path:url(#qhyw6uz1xb)">
                <path data-name="패스 1527" d="M16.754 17.2a3.241 3.241 0 0 1-2.043-.608 4.736 4.736 0 0 1-1.217-1.568 2.112 2.112 0 0 1 3-1.319c.684.289 1.136.879 1.891 1.233a8.057 8.057 0 0 0 1.61.554 4.636 4.636 0 0 1-3.241 1.708z" transform="translate(-4.832 -3.292)" style="stroke:#000;stroke-linecap:round;stroke-linejoin:round;fill:none"/>
                <path data-name="패스 1528" d="M15.946 15.554a4.185 4.185 0 0 0-4.485.368" transform="translate(-4.198 -3.607)" style="stroke:#000;stroke-linecap:round;stroke-linejoin:round;fill:none"/>
                <path data-name="패스 1529" d="m7.454 15.222-6.8 4.826c-.316.224-.115.639.309.639h28.38c.425 0 .625-.414.309-.639l-6.8-4.826-7.39-5.246a.559.559 0 0 0-.618 0l-1.377.977" transform="translate(-.153 -2.932)" style="stroke:#000;stroke-linecap:round;stroke-linejoin:round;fill:none"/>
                <path data-name="패스 1530" d="M18.671 2.585a2.056 2.056 0 1 1 4.112 0 2.071 2.071 0 0 1-2.056 2.085v2.087" transform="translate(-5.727 -.148)" style="stroke:#000;stroke-linecap:round;stroke-linejoin:round;fill:none"/>
            </g>
        </g>
    </g>
</svg>
