<svg xmlns="http://www.w3.org/2000/svg" width="12" height="12" viewBox="0 0 12 12">
    <g data-name="Path 127" style="fill:none">
        <path d="M6 0a6 6 0 1 1-6 6 6 6 0 0 1 6-6z" style="stroke:none"/>
        <path d="M6 1C3.243 1 1 3.243 1 6s2.243 5 5 5 5-2.243 5-5-2.243-5-5-5m0-1a6 6 0 1 1 0 12A6 6 0 0 1 6 0z" style="fill:#000;stroke:none"/>
    </g>
    <path data-name="Path 1903" d="M5.996 8.86a.624.624 0 0 1-.456-.193.621.621 0 0 1-.192-.456.634.634 0 0 1 .192-.464.626.626 0 0 1 .456-.191.636.636 0 0 1 .464.191.634.634 0 0 1 .192.464.621.621 0 0 1-.192.456.634.634 0 0 1-.464.193M5.58 7.1l-.132-3.96h1.108L6.42 7.1z"/>
</svg>
