<svg xmlns="http://www.w3.org/2000/svg" width="12" height="12" viewBox="0 0 12 12">
    <g data-name="Path 127" style="fill:none">
        <path d="M6 0a6 6 0 1 1-6 6 6 6 0 0 1 6-6z" style="stroke:none"/>
        <path d="M6 .5A5.506 5.506 0 0 0 .5 6c0 3.033 2.467 5.5 5.5 5.5s5.5-2.467 5.5-5.5S9.033.5 6 .5M6 0a6 6 0 1 1 0 12A6 6 0 0 1 6 0z" style="fill:#000;stroke:none"/>
    </g>
    <path data-name="Path 1904" d="M5.368 7.101a2.773 2.773 0 0 1 .032-.624 1.155 1.155 0 0 1 .192-.46 1.74 1.74 0 0 1 .392-.388l.416-.3a1.586 1.586 0 0 0 .356-.34.562.562 0 0 0 .108-.324.5.5 0 0 0-.112-.324.777.777 0 0 0-.304-.225 1.089 1.089 0 0 0-.44-.084 1.256 1.256 0 0 0-.664.184 1.224 1.224 0 0 0-.464.5L4 4.349a1.958 1.958 0 0 1 .48-.656 2.222 2.222 0 0 1 .708-.424 2.406 2.406 0 0 1 .86-.153 2.277 2.277 0 0 1 .968.2 1.708 1.708 0 0 1 .672.532 1.26 1.26 0 0 1 .248.768 1.376 1.376 0 0 1-.092.516 1.334 1.334 0 0 1-.308.443 4.087 4.087 0 0 1-.592.473l-.216.152a.96.96 0 0 0-.356.375 1.09 1.09 0 0 0-.084.529zm.464 1.784a.623.623 0 0 1-.456-.192.623.623 0 0 1-.192-.456.633.633 0 0 1 .192-.464.638.638 0 0 1 .912 0 .633.633 0 0 1 .192.464.623.623 0 0 1-.192.456.623.623 0 0 1-.456.192"/>
</svg>
