<svg xmlns="http://www.w3.org/2000/svg" width="30" height="30" viewBox="0 0 30 30">
    <path data-name="패스 971" d="M30 15A15 15 0 1 1 15 0a15 15 0 0 1 15 15"/>
    <g data-name="그룹 908">
        <path data-name="패스 967" d="M22.771 19.483a2.772 2.772 0 0 1 1.391-2.34 3.069 3.069 0 0 0-2.356-1.224c-1.005-.1-1.961.566-2.469.566s-1.3-.549-2.128-.534a3.18 3.18 0 0 0-2.668 1.542c-1.137 1.883-.292 4.676.818 6.2.541.748 1.186 1.588 2.033 1.558.818-.03 1.127-.5 2.114-.5s1.265.5 2.129.491 1.436-.765 1.973-1.513a6.726 6.726 0 0 0 .893-1.752 2.736 2.736 0 0 1-1.73-2.492" transform="translate(-4.25 -4.109)" style="fill:#fff"/>
        <path data-name="패스 968" d="M24.153 13.528a3.229 3.229 0 0 0 .767-2.352 3.3 3.3 0 0 0-2.169 1.115 3.088 3.088 0 0 0-.783 2.281 2.733 2.733 0 0 0 2.185-1.045" transform="translate(-7.23 -2.926)" style="fill:#fff"/>
    </g>
</svg>
