<svg xmlns="http://www.w3.org/2000/svg" width="17.82" height="20.4" viewBox="0 0 17.82 20.4">
    <path data-name="패스 134" d="M213 106.4a3.236 3.236 0 0 0-3.226 3.226 3.2 3.2 0 0 0 .171 1.038l-5.524 3.589a3.22 3.22 0 1 0 .01 4.294l5.514 3.589a3.151 3.151 0 0 0-.171 1.038 3.259 3.259 0 1 0 .837-2.147l-5.524-3.589a3.209 3.209 0 0 0 .171-1.038 3.151 3.151 0 0 0-.171-1.038l5.514-3.589A3.223 3.223 0 1 0 213 106.4zm0 1.29a1.936 1.936 0 1 1-1.936 1.936A1.926 1.926 0 0 1 213 107.69zm-10.968 6.774a1.936 1.936 0 1 1-1.936 1.936 1.926 1.926 0 0 1 1.931-1.935zM213 121.239a1.936 1.936 0 1 1-1.936 1.936 1.926 1.926 0 0 1 1.936-1.936z" transform="translate(-198.602 -106.2)" style="fill:#fff;stroke:#000;stroke-width:.4px"/>
</svg>
