<svg xmlns="http://www.w3.org/2000/svg" width="17.654" height="19.399" viewBox="0 0 17.654 19.399">
    <path data-name="Path 1151" d="M9.05.5H8.9A8.4 8.4 0 0 0 .5 8.9v.213a8.4 8.4 0 0 0 4.4 7.397 3.339 3.339 0 0 1-.571 1.2c-.356.478-.8 1.035-1.011 1.255s-.019.32.6.162A14.115 14.115 0 0 0 6.8 17.906c.434-.251.688-.394.868-.486a8.333 8.333 0 0 0 1.234.1h.148a8.4 8.4 0 0 0 8.4-8.4V8.9A8.4 8.4 0 0 0 9.05.5z" transform="translate(-.15 -.15)" style="fill:none;stroke:#070203;stroke-miterlimit:10;stroke-width:.7px"/>
    <path data-name="Path 1152" d="M12.761 31.147h1.705v1.689h-1.705a1.032 1.032 0 0 1-.685-.229.758.758 0 0 1-.267-.622.743.743 0 0 1 .272-.609 1.022 1.022 0 0 1 .68-.229" transform="translate(-8.41 -22.262)" style="fill:#070203"/>
    <path data-name="Path 1153" d="M29.811 19.416a2.758 2.758 0 0 1-2.252.945H26.4v-1.69h.634a1.455 1.455 0 0 0 1.085-.381 1.331 1.331 0 0 0 .357-.977 1.257 1.257 0 0 0-.4-.9 1.349 1.349 0 0 0-.931-.332h-1.231v6.305a1.2 1.2 0 0 1-.26.784.862.862 0 0 1-.71.31.894.894 0 0 1-.719-.312 1.164 1.164 0 0 1-.269-.782v-6.8a1.1 1.1 0 0 1 1.2-1.2h2.127a3.141 3.141 0 0 1 2.271.744 2.992 2.992 0 0 1 .495.627 3.146 3.146 0 0 1 .329.756 2.951 2.951 0 0 1 .111.794 3.185 3.185 0 0 1-.681 2.112" transform="translate(-17.456 -9.776)" style="fill:#070203"/>
</svg>
