<svg xmlns="http://www.w3.org/2000/svg" width="50" height="50" viewBox="0 0 50 50">
    <defs>
        <clipPath id="cf1ab1pg2a">
            <path data-name="사각형 2024" style="fill:none" d="M0 0h22.704v8.532H0z"/>
        </clipPath>
    </defs>
    <path data-name="패스 1099" d="M25 0A25 25 0 1 1 0 25 25 25 0 0 1 25 0z" style="fill:#eee"/>
    <g data-name="그룹 1552">
        <g data-name="그룹 1551" style="clip-path:url(#cf1ab1pg2a)" transform="translate(13.648 20.734)">
            <path data-name="패스 1190" d="M3.563 8.532a3.772 3.772 0 0 1-1.9-.456 3.069 3.069 0 0 1-1.231-1.29A4.227 4.227 0 0 1 0 4.812V0h1.26v4.812a3.038 3.038 0 0 0 .283 1.356 2.045 2.045 0 0 0 .8.888 2.327 2.327 0 0 0 1.217.312 2.342 2.342 0 0 0 1.24-.312 2.073 2.073 0 0 0 .8-.888 3.052 3.052 0 0 0 .281-1.356V0h1.26v4.812A4.191 4.191 0 0 1 6.7 6.786a3.105 3.105 0 0 1-1.243 1.29 3.767 3.767 0 0 1-1.9.456"/>
            <path data-name="패스 1191" d="M8.7 8.4V0h3.8a3.274 3.274 0 0 1 1.47.312 2.4 2.4 0 0 1 .984.87 2.378 2.378 0 0 1 .354 1.3 2.258 2.258 0 0 1-.467 1.428 2.6 2.6 0 0 1-1.261.864L15.456 8.4h-1.392l-1.74-3.444H9.96V8.4zm1.26-4.5h2.448a1.8 1.8 0 0 0 1.192-.378 1.272 1.272 0 0 0 .452-1.022 1.263 1.263 0 0 0-.452-1.012 1.781 1.781 0 0 0-1.192-.388H9.96z"/>
            <path data-name="패스 1192" d="M16.608 8.4V0h1.26v7.284H22.7V8.4z"/>
        </g>
    </g>
</svg>
