<svg xmlns="http://www.w3.org/2000/svg" width="18.341" height="21.398" viewBox="0 0 18.341 21.398">
    <path data-name="패스 762" d="M3.805.003a.485.485 0 0 0-.43.494v1.458H.434a.485.485 0 0 0-.437.486v18.47a.484.484 0 0 0 .483.486h17.376a.484.484 0 0 0 .483-.486V2.442a.485.485 0 0 0-.483-.486h-2.9V.496a.488.488 0 0 0-.157-.369.48.48 0 0 0-.379-.125.485.485 0 0 0-.43.494v1.458H4.337V.496A.487.487 0 0 0 4.18.127a.48.48 0 0 0-.379-.125zM.962 2.927h2.413v1.944a.488.488 0 0 0 .139.348.48.48 0 0 0 .688 0 .488.488 0 0 0 .139-.348V2.927h9.653v1.944a.487.487 0 0 0 .139.348.48.48 0 0 0 .688 0 .488.488 0 0 0 .139-.348V2.927h2.413v17.5H.963zm7 6.8a.484.484 0 0 0-.483.486v2.43a.484.484 0 0 0 .483.486h2.413a.484.484 0 0 0 .483-.486v-2.43a.485.485 0 0 0-.437-.486H7.962zm4.585 0a.484.484 0 0 0-.483.486v2.43a.484.484 0 0 0 .483.486h2.413a.485.485 0 0 0 .483-.486v-2.43a.485.485 0 0 0-.438-.486h-2.459zm-4.1.972h1.448v1.463H8.447zm4.585 0h1.448v1.463h-1.448zm-9.7 4.375a.485.485 0 0 0-.437.486v2.43a.485.485 0 0 0 .483.486h2.413a.484.484 0 0 0 .483-.486v-2.43a.484.484 0 0 0-.483-.486H3.332zm4.631 0a.484.484 0 0 0-.483.486v2.43a.484.484 0 0 0 .483.486h2.413a.484.484 0 0 0 .483-.486v-2.43a.485.485 0 0 0-.437-.486H7.963zm4.585 0a.484.484 0 0 0-.483.486v2.43a.484.484 0 0 0 .483.486h2.413a.485.485 0 0 0 .483-.486v-2.43a.485.485 0 0 0-.437-.486h-2.459zm-8.688.972h1.445v1.458H3.857zm4.585 0h1.448v1.458H8.445zm4.585 0h1.448v1.458H13.03z"/>
    <path data-name="패스 1128" d="M3.805.003a.485.485 0 0 0-.43.494v1.458H.434a.485.485 0 0 0-.437.486v18.47a.484.484 0 0 0 .483.486h17.376a.484.484 0 0 0 .483-.486V2.442a.485.485 0 0 0-.483-.486h-2.9V.496a.488.488 0 0 0-.157-.369.48.48 0 0 0-.379-.125.485.485 0 0 0-.43.494v1.458H4.337V.496A.487.487 0 0 0 4.18.127a.48.48 0 0 0-.379-.125zM.962 2.927h2.413v1.944a.488.488 0 0 0 .139.348.48.48 0 0 0 .688 0 .488.488 0 0 0 .139-.348V2.927h9.653v1.944a.487.487 0 0 0 .139.348.48.48 0 0 0 .688 0 .488.488 0 0 0 .139-.348V2.927h2.413v17.5H.963zm2.413 6.8a.484.484 0 0 0-.483.486v2.43a.484.484 0 0 0 .483.486h2.413a.484.484 0 0 0 .483-.486v-2.43a.485.485 0 0 0-.437-.486H3.375zm9.171 0a.484.484 0 0 0-.483.486v2.43a.484.484 0 0 0 .483.486h2.413a.485.485 0 0 0 .483-.486v-2.43a.485.485 0 0 0-.438-.486h-2.459zm-8.688.972h1.447v1.463H3.857zm9.171 0h1.448v1.463h-1.448zm-9.7 4.375a.485.485 0 0 0-.437.486v2.43a.485.485 0 0 0 .483.486h2.413a.484.484 0 0 0 .483-.486v-2.43a.484.484 0 0 0-.483-.486H3.329zm4.631 0a.484.484 0 0 0-.483.486v2.43a.484.484 0 0 0 .483.486h2.413a.484.484 0 0 0 .483-.486v-2.43a.485.485 0 0 0-.437-.486H7.96zm4.585 0a.484.484 0 0 0-.483.486v2.43a.484.484 0 0 0 .483.486h2.413a.485.485 0 0 0 .483-.486v-2.43a.485.485 0 0 0-.437-.486h-2.459zm-8.688.972h1.448v1.458H3.857zm4.585 0H9.89v1.458H8.442zm4.585 0h1.448v1.458h-1.448z"/>
</svg>
