<svg xmlns="http://www.w3.org/2000/svg" width="30" height="30" viewBox="0 0 30 30">
    <path data-name="패스 973" d="M30 15A15 15 0 1 1 15 0a15 15 0 0 1 15 15" style="fill:#f4511e"/>
    <path data-name="패스 974" d="M23.4 17.2h-5.043v2.072h2.883a2.465 2.465 0 0 1-1.069 1.617 3.228 3.228 0 1 1-1.814-5.941 2.893 2.893 0 0 1 2.048.8l1.536-1.537a5.147 5.147 0 0 0-3.584-1.4 5.357 5.357 0 1 0 0 10.714 5.115 5.115 0 0 0 3.545-1.3 5.225 5.225 0 0 0 1.6-3.938 6.128 6.128 0 0 0-.1-1.1" transform="translate(-3.25 -3.173)" style="fill:#fff;fill-rule:evenodd"/>
</svg>
