<svg xmlns="http://www.w3.org/2000/svg" width="129.674" height="20.613" viewBox="0 0 129.674 20.613">
    <path data-name="패스 146" d="m87.018 33.711-6.5-3.417-6.5 3.417 1.241-7.236-5.254-5.125 7.265-1.056 3.249-6.584 3.249 6.584 7.265 1.056-5.257 5.124zm-6.5-4.272 5.492 2.887-1.047-6.116 4.443-4.331-6.14-.893-2.746-5.563-2.746 5.564-6.14.893 4.443 4.331-1.049 6.115z" transform="translate(38.317 -13.372)" style="stroke:#000;stroke-width:.3px"/>
    <path data-name="패스 1116" d="m87.018 33.711-6.5-3.417-6.5 3.417 1.241-7.236-5.254-5.125 7.265-1.056 3.249-6.584 3.249 6.584 7.265 1.056-5.257 5.124zm-6.5-4.272 5.492 2.887-1.047-6.116 4.443-4.331-6.14-.893-2.746-5.563-2.746 5.564-6.14.893 4.443 4.331-1.049 6.115z" transform="translate(11.317 -13.372)" style="stroke:#000;stroke-width:.3px"/>
    <path data-name="패스 1117" d="m87.018 33.711-6.5-3.417-6.5 3.417 1.241-7.236-5.254-5.125 7.265-1.056 3.249-6.584 3.249 6.584 7.265 1.056-5.257 5.124zm-6.5-4.272 5.492 2.887-1.047-6.116 4.443-4.331-6.14-.893-2.746-5.563-2.746 5.564-6.14.893 4.443 4.331-1.049 6.115z" transform="translate(-15.683 -13.372)" style="stroke:#000;stroke-width:.3px"/>
    <path data-name="패스 1118" d="m87.018 33.711-6.5-3.417-6.5 3.417 1.241-7.236-5.254-5.125 7.265-1.056 3.249-6.584 3.249 6.584 7.265 1.056-5.257 5.124zm-6.5-4.272 5.492 2.887-1.047-6.116 4.443-4.331-6.14-.893-2.746-5.563-2.746 5.564-6.14.893 4.443 4.331-1.049 6.115z" transform="translate(-42.683 -13.372)" style="stroke:#000;stroke-width:.3px"/>
    <path data-name="패스 1119" d="m87.018 33.711-6.5-3.417-6.5 3.417 1.241-7.236-5.254-5.125 7.265-1.056 3.249-6.584 3.249 6.584 7.265 1.056-5.257 5.124zm-6.5-4.272 5.492 2.887-1.047-6.116 4.443-4.331-6.14-.893-2.746-5.563-2.746 5.564-6.14.893 4.443 4.331-1.049 6.115z" transform="translate(-69.683 -13.372)" style="stroke:#000;stroke-width:.3px"/>
</svg>
