<svg xmlns="http://www.w3.org/2000/svg" width="208" height="136.001" viewBox="0 0 208 136.001">
    <defs>
        <filter id="h8uri8rg2a" x="0" y="11" width="208" height="125.001" filterUnits="userSpaceOnUse">
            <feOffset dy="3"/>
            <feGaussianBlur stdDeviation="3" result="blur"/>
            <feFlood flood-opacity=".161"/>
            <feComposite operator="in" in2="blur"/>
            <feComposite in="SourceGraphic"/>
        </filter>
    </defs>
    <g data-name="coupon img">
        <g style="filter:url(#h8uri8rg2a)">
            <g data-name="빼기 15" style="fill:#fff">
                <path d="M189.5 106.5H.5V.5h189v42.01c-5.938.248-10.687 4.859-10.687 10.49 0 5.633 4.75 10.243 10.687 10.49v43.01z" style="stroke:none" transform="translate(9 17)"/>
                <path d="M189 106V63.96c-5.978-.479-10.687-5.211-10.687-10.96 0-5.747 4.709-10.48 10.687-10.96V1H1v105h188m1 1.001H0V0h190v43c-5.894.001-10.687 4.487-10.687 10 0 5.514 4.794 10 10.687 10v44.001z" style="fill:#000;stroke:none" transform="translate(9 17)"/>
            </g>
        </g>
        <g data-name="그룹 1301" transform="translate(-489 -146)">
            <circle data-name="타원 447" cx="17.5" cy="17.5" r="17.5" transform="translate(643 146)" style="fill:#00bab4"/>
            <g data-name="그룹 1223">
                <path data-name="선 473" transform="translate(655 169)" style="fill:none;stroke:#fff;stroke-miterlimit:10" d="M0 0h12"/>
                <path data-name="선 472" transform="translate(660.821 154.447)" style="fill:none;stroke:#fff;stroke-miterlimit:10" d="M0 11.915V0"/>
                <path data-name="패스 1055" d="m2.375 10.688 5.184 4.32 5.184-4.32" transform="translate(653.262 151.354)" style="fill:none;stroke:#fff;stroke-miterlimit:10"/>
            </g>
        </g>
        <path data-name="사각형 1693" transform="translate(34 53)" style="fill:#eee" d="M0 0h140v1H0z"/>
        <g data-name="그룹 1578">
            <path data-name="패스 1645" d="M48.16 94.8a11.573 11.573 0 0 1-4.381-.825 10.932 10.932 0 0 1-3.555-2.3 10.7 10.7 0 0 1-2.37-3.435A10.532 10.532 0 0 1 37 84a10.5 10.5 0 0 1 3.239-7.71 11.17 11.17 0 0 1 3.561-2.295 11.469 11.469 0 0 1 4.36-.825 11.728 11.728 0 0 1 3.359.481A12.221 12.221 0 0 1 54.535 75a9.454 9.454 0 0 1 2.385 2.1l-2.941 2.91a7.68 7.68 0 0 0-2.625-2.13 7.236 7.236 0 0 0-3.194-.72 6.662 6.662 0 0 0-2.641.525 6.514 6.514 0 0 0-3.54 3.6A7.1 7.1 0 0 0 41.47 84a7.01 7.01 0 0 0 .509 2.685 6.377 6.377 0 0 0 1.441 2.16 6.653 6.653 0 0 0 2.18 1.425 7.07 7.07 0 0 0 2.714.51 7.045 7.045 0 0 0 3.09-.69 7.788 7.788 0 0 0 2.55-1.979L56.8 90.93A9.88 9.88 0 0 1 54.43 93a11.612 11.612 0 0 1-2.986 1.335 11.739 11.739 0 0 1-3.284.465"/>
            <path data-name="패스 1646" d="M69.189 94.83a11.345 11.345 0 0 1-4.35-.825 10.872 10.872 0 0 1-5.9-5.76A10.533 10.533 0 0 1 58.084 84a10.547 10.547 0 0 1 .855-4.245 10.872 10.872 0 0 1 5.9-5.76 11.92 11.92 0 0 1 8.715 0 10.864 10.864 0 0 1 3.54 2.31A10.608 10.608 0 0 1 80.289 84a10.608 10.608 0 0 1-3.195 7.695 10.848 10.848 0 0 1-3.54 2.31 11.454 11.454 0 0 1-4.365.825m0-3.99a6.532 6.532 0 0 0 2.64-.524 6.674 6.674 0 0 0 2.1-1.441 6.577 6.577 0 0 0 1.41-2.175 7.124 7.124 0 0 0 .51-2.7 7.1 7.1 0 0 0-.51-2.715 6.59 6.59 0 0 0-3.51-3.6 6.515 6.515 0 0 0-2.64-.525 6.436 6.436 0 0 0-2.61.525 6.59 6.59 0 0 0-3.51 3.6 7.014 7.014 0 0 0-.51 2.685 7.2 7.2 0 0 0 .51 2.73 6.577 6.577 0 0 0 1.41 2.175 6.662 6.662 0 0 0 2.1 1.441 6.453 6.453 0 0 0 2.61.524"/>
            <path data-name="패스 1647" d="M92.259 94.8a10.136 10.136 0 0 1-4.935-1.14 7.889 7.889 0 0 1-3.224-3.255 10.3 10.3 0 0 1-1.141-4.964V73.5h4.351v11.941a6.2 6.2 0 0 0 .614 2.835 4.355 4.355 0 0 0 1.74 1.859 5.175 5.175 0 0 0 2.625.645 5.1 5.1 0 0 0 2.611-.645 4.387 4.387 0 0 0 1.724-1.859 6.205 6.205 0 0 0 .615-2.835V73.5h4.321v11.941a10.242 10.242 0 0 1-1.141 4.929 8 8 0 0 1-3.224 3.27 10.036 10.036 0 0 1-4.936 1.155"/>
            <path data-name="패스 1648" d="M105.039 94.501v-21h10.53a7.641 7.641 0 0 1 3.645.839 6.3 6.3 0 0 1 2.475 2.33 6.492 6.492 0 0 1 .9 3.434 6.208 6.208 0 0 1-3.39 5.641 7.665 7.665 0 0 1-3.63.84h-6.18v7.92zm4.35-11.52h5.7a3.23 3.23 0 0 0 2.265-.78 2.669 2.669 0 0 0 .855-2.071 2.7 2.7 0 0 0-.855-2.1 3.226 3.226 0 0 0-2.265-.78h-5.7z"/>
            <path data-name="패스 1649" d="M135.759 94.83a11.345 11.345 0 0 1-4.35-.825 10.872 10.872 0 0 1-5.895-5.76 10.533 10.533 0 0 1-.855-4.245 10.547 10.547 0 0 1 .855-4.245 10.872 10.872 0 0 1 5.895-5.76 11.92 11.92 0 0 1 8.715 0 10.864 10.864 0 0 1 3.54 2.31A10.608 10.608 0 0 1 146.859 84a10.608 10.608 0 0 1-3.195 7.695 10.848 10.848 0 0 1-3.54 2.31 11.454 11.454 0 0 1-4.365.825m0-3.99a6.532 6.532 0 0 0 2.64-.524 6.674 6.674 0 0 0 2.1-1.441 6.577 6.577 0 0 0 1.41-2.175 7.124 7.124 0 0 0 .51-2.7 7.1 7.1 0 0 0-.51-2.715 6.59 6.59 0 0 0-3.51-3.6 6.515 6.515 0 0 0-2.64-.525 6.436 6.436 0 0 0-2.61.525 6.59 6.59 0 0 0-3.51 3.6 7.014 7.014 0 0 0-.51 2.685 7.2 7.2 0 0 0 .51 2.73 6.577 6.577 0 0 0 1.41 2.175 6.662 6.662 0 0 0 2.1 1.441 6.453 6.453 0 0 0 2.61.524"/>
            <path data-name="패스 1650" d="M149.858 94.5v-21H154l10.44 13.56V73.5h4.08v21h-3.84l-10.712-14.04V94.5z"/>
        </g>
        <g data-name="그룹 1581">
            <path data-name="패스 1651" d="M90.117 33.15 88.8 39.486l-1.906-6.336h-.823l-1.905 6.358-1.308-6.358H82l1.66 7.7h.858l1.958-6.523 1.948 6.523h.857l1.662-7.7z"/>
            <path data-name="사각형 2034" d="M92.813 33.15h.848v7.7h-.848z"/>
            <path data-name="패스 1652" d="M95.463 33.15v.748h4.851l-4.894 6.347v.605h6.094v-.748h-5.006l4.917-6.346v-.606z"/>
            <path data-name="패스 1653" d="m110.951 33.15-1.32 6.336-1.903-6.336h-.828l-1.9 6.358-1.308-6.358h-.859l1.66 7.7h.858l1.959-6.523 1.947 6.523h.858l1.661-7.7z"/>
            <path data-name="사각형 2035" d="M113.647 33.15h.847v7.7h-.847z"/>
            <path data-name="패스 1654" d="M116.836 40.85v-7.7h2.541a4.454 4.454 0 0 1 1.618.286 3.876 3.876 0 0 1 1.281.8 3.659 3.659 0 0 1 .847 1.222 3.851 3.851 0 0 1 .3 1.54 3.926 3.926 0 0 1-.3 1.54 3.606 3.606 0 0 1-.841 1.221 3.874 3.874 0 0 1-1.288.8 4.472 4.472 0 0 1-1.623.287zm.848-.77h1.738a3.276 3.276 0 0 0 1.242-.23 3.078 3.078 0 0 0 1-.65 2.918 2.918 0 0 0 .665-.978 3.092 3.092 0 0 0 .238-1.221 3.09 3.09 0 0 0-.238-1.222 2.918 2.918 0 0 0-.665-.978 3.078 3.078 0 0 0-1-.65 3.3 3.3 0 0 0-1.242-.23h-1.738z"/>
        </g>
    </g>
</svg>
