<svg xmlns="http://www.w3.org/2000/svg" width="15" height="15" viewBox="0 0 15 15">
    <g data-name="Path 127" style="fill:none">
        <path d="M7.5 0A7.5 7.5 0 1 1 0 7.5 7.5 7.5 0 0 1 7.5 0z" style="stroke:none"/>
        <path d="M7.5 1A6.507 6.507 0 0 0 1 7.5C1 11.084 3.916 14 7.5 14S14 11.084 14 7.5 11.084 1 7.5 1m0-1a7.5 7.5 0 1 1 0 15 7.5 7.5 0 0 1 0-15z" style="fill:#000;stroke:none"/>
    </g>
    <text data-name="?" transform="translate(5.2 10.6)" style="font-size:9px;font-family:RedHatDisplay-Bold,Red Hat Display;font-weight:700"><tspan x="0" y="0">?</tspan></text>
</svg>
