<svg xmlns="http://www.w3.org/2000/svg" width="15.501" height="13.673" viewBox="0 0 15.501 13.673">
    <g data-name="*ic_like">
        <path data-name="Path 1901" d="M11.258.254C10.17.254 9 .98 7.75 2.391 6.5.979 5.33.254 4.242.254H4.2A3.851 3.851 0 0 0 .25 4.001a3.655 3.655 0 0 0 .887 2.178c.485.685 2.621 2.984 6.452 6.976l.161.161.158-.159c3.713-3.953 5.851-6.293 6.375-6.937a3.874 3.874 0 0 0 .967-2.219A3.9 3.9 0 0 0 11.258.254m2.7 5.687c-.484.645-2.58 2.944-6.209 6.774-3.709-3.831-5.806-6.129-6.29-6.774a3.456 3.456 0 0 1-.806-1.977A3.473 3.473 0 0 1 4.242.618c1.009 0 2.137.727 3.347 2.218l.161.161.161-.161C9.12 1.384 10.249.659 11.257.659a3.473 3.473 0 0 1 3.589 3.342 3.261 3.261 0 0 1-.887 1.935"/>
        <path data-name="Path 1902" d="M11.158.153C10.07.153 8.9.879 7.65 2.29 6.4.878 5.23.153 4.142.153H4.1A3.851 3.851 0 0 0 .15 3.9a3.655 3.655 0 0 0 .887 2.178c.485.685 2.621 2.984 6.452 6.976l.161.161.158-.159c3.713-3.953 5.851-6.293 6.375-6.937A3.874 3.874 0 0 0 15.15 3.9 3.9 3.9 0 0 0 11.158.153zm2.7 5.687c-.484.645-2.58 2.944-6.209 6.774C3.94 8.783 1.843 6.485 1.359 5.84a3.456 3.456 0 0 1-.806-1.977A3.473 3.473 0 0 1 4.142.517c1.009 0 2.137.727 3.347 2.218l.161.161.161-.161C9.02 1.283 10.149.558 11.157.558A3.473 3.473 0 0 1 14.746 3.9a3.261 3.261 0 0 1-.887 1.94z" transform="translate(.1 .101)" style="stroke:#000;stroke-width:.5px"/>
    </g>
</svg>
