<svg xmlns="http://www.w3.org/2000/svg" width="15.5" height="13.672" viewBox="0 0 15.5 13.672">
    <path data-name="*ic_like_on" d="m43.569 23.253-.161-.161c-3.831-3.992-5.968-6.292-6.452-6.979a3.658 3.658 0 0 1-.887-2.178 3.852 3.852 0 0 1 3.992-3.751c1.089 0 2.258.726 3.508 2.138 1.25-1.412 2.419-2.138 3.508-2.138a3.9 3.9 0 0 1 3.992 3.751 3.88 3.88 0 0 1-.968 2.218c-.524.645-2.661 2.985-6.371 6.938z" transform="translate(-35.819 -9.934)" style="fill:#00bab4;stroke:#00bab4;stroke-width:.5px"/>
</svg>
