<svg xmlns="http://www.w3.org/2000/svg" width="30.002" height="30" viewBox="0 0 30.002 30">
    <g data-name="그룹 1170">
        <path data-name="제외 1" d="M-7265.916-3575h-30v-18.1l7.5 7.312-1.772 10.323 9.271-4.874 9.272 4.874-1.772-10.323 7.5-7.311-10.365-1.506-4.636-9.393-4.634 9.393-10.365 1.505v-11.9h30v30z" transform="translate(7295.918 3605)" style="fill:#f8f8f8"/>
        <g data-name="패스 1122" style="fill:none">
            <path d="m85.007 13.7 4.635 9.4 10.365 1.5-7.5 7.31 1.771 10.323-9.271-4.874-9.271 4.874 1.771-10.323-7.5-7.31 10.365-1.5z" style="stroke:none" transform="translate(-70.006 -12.703)"/>
            <path d="m85.007 15.963-3.971 8.046-8.88 1.29 6.426 6.264-1.517 8.844 7.942-4.176 7.943 4.176-1.518-8.844 6.426-6.264-8.88-1.29-3.971-8.046m0-2.26 4.635 9.392 10.365 1.506-7.5 7.31 1.77 10.324-9.27-4.874-9.27 4.874 1.77-10.323-7.5-7.31 10.365-1.507 4.635-9.392z" style="fill:#000;stroke:none" transform="translate(-70.006 -12.703)"/>
        </g>
    </g>
</svg>
