<svg xmlns="http://www.w3.org/2000/svg" width="50" height="50" viewBox="0 0 50 50">
    <path data-name="패스 1100" d="M25 0A25 25 0 1 1 0 25 25 25 0 0 1 25 0z" style="fill:#333"/>
    <g data-name="그룹 1550">
        <path data-name="패스 1187" d="M16.282 29.314a4.941 4.941 0 0 1-1.944-.4 5.169 5.169 0 0 1-1.656-1.114l.768-.888a4.922 4.922 0 0 0 1.4 1 3.576 3.576 0 0 0 1.494.324 3.039 3.039 0 0 0 1.074-.174 1.59 1.59 0 0 0 .714-.5 1.161 1.161 0 0 0 .252-.732 1.018 1.018 0 0 0-.4-.864 3.1 3.1 0 0 0-1.308-.456l-1.4-.228a3.29 3.29 0 0 1-1.722-.744 1.89 1.89 0 0 1-.57-1.44 2.145 2.145 0 0 1 .384-1.266 2.478 2.478 0 0 1 1.086-.846 4.109 4.109 0 0 1 1.626-.3 5.639 5.639 0 0 1 1.794.294 5.279 5.279 0 0 1 1.59.846l-.7.96a4.512 4.512 0 0 0-2.748-1.033 2.683 2.683 0 0 0-.96.157 1.471 1.471 0 0 0-.636.438 1.01 1.01 0 0 0-.228.654.932.932 0 0 0 .348.786 2.539 2.539 0 0 0 1.152.39l1.356.228a3.8 3.8 0 0 1 1.956.78 1.981 1.981 0 0 1 .624 1.548 2.247 2.247 0 0 1-.42 1.35 2.745 2.745 0 0 1-1.176.906 4.416 4.416 0 0 1-1.752.324" style="fill:#fff"/>
        <path data-name="패스 1188" d="M20.794 29.194v-8.4h1.692l2.628 5.376 2.628-5.376h1.68v8.4h-1.189V22.33L25.1 28.594l-3.131-6.264v6.864z" style="fill:#fff"/>
        <path data-name="패스 1189" d="M33.969 29.314a4.936 4.936 0 0 1-1.943-.4 5.184 5.184 0 0 1-1.657-1.114l.768-.888a4.936 4.936 0 0 0 1.4 1 3.577 3.577 0 0 0 1.495.324 3.043 3.043 0 0 0 1.068-.176 1.59 1.59 0 0 0 .714-.5 1.161 1.161 0 0 0 .252-.732 1.017 1.017 0 0 0-.4-.864 3.1 3.1 0 0 0-1.308-.456l-1.4-.228a3.291 3.291 0 0 1-1.721-.744 1.891 1.891 0 0 1-.571-1.44 2.145 2.145 0 0 1 .384-1.266 2.481 2.481 0 0 1 1.087-.846 4.109 4.109 0 0 1 1.626-.3 5.643 5.643 0 0 1 1.794.294 5.291 5.291 0 0 1 1.59.846l-.7.96a4.512 4.512 0 0 0-2.748-1.033 2.683 2.683 0 0 0-.96.157 1.461 1.461 0 0 0-.635.438 1 1 0 0 0-.229.654.933.933 0 0 0 .349.786 2.53 2.53 0 0 0 1.151.39l1.357.228a3.806 3.806 0 0 1 1.956.78 1.981 1.981 0 0 1 .624 1.548 2.253 2.253 0 0 1-.42 1.35 2.745 2.745 0 0 1-1.176.906 4.425 4.425 0 0 1-1.753.324" style="fill:#fff"/>
    </g>
</svg>
