<svg xmlns="http://www.w3.org/2000/svg" width="20.939" height="20.707" viewBox="0 0 20.939 20.707">
  <defs>
    <style>
      .cls-1 {
        stroke: #000;
        stroke-width: 0.7px;
      }
    </style>
  </defs>
  <g id="_ic_header_history" data-name="*ic_header_history" transform="translate(0.35 0.35)">
    <path id="history" class="cls-1" d="M76.8-.012A10.116,10.116,0,0,0,66.714,9.656a.229.229,0,0,0,.457.021,9.67,9.67,0,1,1,11.744,9.857.231.231,0,0,0,.1.45A10.116,10.116,0,0,0,77.773.033q-.484-.045-.97-.045ZM75.749,5.726h-.03a.227.227,0,0,0-.2.236v5.975a.222.222,0,0,0,.065.161.225.225,0,0,0,.161.068h4.733a.232.232,0,0,0,.2-.114.228.228,0,0,0,0-.229.232.232,0,0,0-.2-.114h-4.5V5.964a.228.228,0,0,0-.226-.238Z" transform="translate(-66.714 0.012)"/>
  </g>
</svg>
