<svg xmlns="http://www.w3.org/2000/svg" width="8.747" height="10.95" viewBox="0 0 8.747 10.95">
    <path data-name="패스 157" d="M96.045 220.074h-7.724a.161.161 0 0 0-.161.161v5.5a.721.721 0 0 0 .721.721h6.605a.721.721 0 0 0 .721-.721v-5.5a.161.161 0 0 0-.161-.161zm0 0" transform="translate(-87.809 -215.856)" style="fill:none;stroke:#000;stroke-linecap:round;stroke-linejoin:round;stroke-miterlimit:10;stroke-width:.7px"/>
    <path data-name="패스 158" d="M165.795 39.508h-5v-1.546a2.322 2.322 0 0 1 2.322-2.322h.356a2.322 2.322 0 0 1 2.322 2.322zm0 0" transform="translate(-158.921 -35.29)" style="fill:none;stroke:#000;stroke-linecap:round;stroke-linejoin:round;stroke-miterlimit:10;stroke-width:.7px"/>
    <path data-name="패스 159" d="M248.335 319.2a.693.693 0 1 1-.693-.693.693.693 0 0 1 .693.693" transform="translate(-243.268 -312.223)" style="fill:none;stroke:#000;stroke-linecap:round;stroke-linejoin:round;stroke-miterlimit:10;stroke-width:.7px"/>
    <path data-name="패스 160" d="M280.005 384.625v.867" transform="translate(-275.632 -376.956)" style="fill:none;stroke:#000;stroke-linecap:round;stroke-linejoin:round;stroke-miterlimit:10;stroke-width:.7px"/>
</svg>
