<svg xmlns="http://www.w3.org/2000/svg" width="129.029" height="20" viewBox="0 0 129.029 20">
    <path data-name="패스 122" d="m91.514-.003 3.249 6.584 7.265 1.056-5.257 5.124 1.242 7.236-6.5-3.417-6.5 3.417 1.241-7.236-5.257-5.124 7.265-1.056z"/>
    <path data-name="패스 1120" d="m118.514-.003 3.249 6.584 7.265 1.056-5.257 5.124 1.242 7.236-6.5-3.417-6.5 3.417 1.241-7.236-5.257-5.124 7.265-1.056z"/>
    <path data-name="패스 122" d="m10.514-.003 3.249 6.584 7.265 1.056-5.257 5.124 1.242 7.236-6.5-3.417-6.5 3.417 1.241-7.236-5.257-5.124 7.265-1.056zM37.514-.003l3.249 6.584 7.265 1.056-5.257 5.124 1.242 7.236-6.5-3.417-6.5 3.417 1.241-7.236-5.257-5.124 7.265-1.056zM64.514-.003l3.249 6.584 7.265 1.056-5.257 5.124 1.242 7.236-6.5-3.417-6.5 3.417 1.241-7.236-5.257-5.124 7.265-1.056z"/>
</svg>
