<svg data-name="*loading" xmlns="http://www.w3.org/2000/svg" width="40" height="40" viewBox="0 0 40 40">
    <path data-name="패스 1119" d="M20.09 8.421h-.105a1 1 0 0 1-1-1V1a1 1 0 0 1 1-1h.105a1 1 0 0 1 1 1v6.421a1 1 0 0 1-1 1"/>
    <path data-name="패스 1120" d="M20.014 40h-.105a1 1 0 0 1-1-1v-6.421a1 1 0 0 1 1-1h.105a1 1 0 0 1 1 1V39a1 1 0 0 1-1 1"/>
    <path data-name="패스 1121" d="m21.51 9.974-.1.04a1 1 0 0 1-1.307-.541L17.649 3.54a1 1 0 0 1 .541-1.307l.1-.04a1 1 0 0 1 1.307.541l2.457 5.932a1 1 0 0 1-.541 1.307" transform="translate(-5.858 -.706)" style="fill:#999"/>
    <path data-name="패스 1122" d="m27.667 38.472-.1.04a1 1 0 0 1-1.307-.541l-2.457-5.933a1 1 0 0 1 .541-1.307l.1-.04a1 1 0 0 1 1.307.541l2.457 5.932a1 1 0 0 1-.541 1.307"/>
    <path data-name="패스 1123" d="m10.058 21.308-.04.1a1 1 0 0 1-1.307.541l-5.933-2.46a1 1 0 0 1-.541-1.307l.04-.1a1 1 0 0 1 1.307-.541L9.516 20a1 1 0 0 1 .541 1.307" transform="translate(-.72 -5.823)" style="fill:#999"/>
    <path data-name="패스 1124" d="m38.484 27.64-.04.1a1 1 0 0 1-1.307.541l-5.93-2.46a1 1 0 0 1-.541-1.307l.04-.1a1 1 0 0 1 1.307-.541l5.932 2.457a1 1 0 0 1 .541 1.307"/>
    <path data-name="패스 1125" d="m9.268 24.347.04.1a1 1 0 0 1-.541 1.307l-5.933 2.455a1 1 0 0 1-1.307-.541l-.04-.1a1 1 0 0 1 .541-1.307l5.932-2.457a1 1 0 0 1 1.307.541"/>
    <path data-name="패스 1126" d="m38.472 12.332.04.1a1 1 0 0 1-.541 1.307l-5.933 2.457a1 1 0 0 1-1.307-.541l-.04-.1a1 1 0 0 1 .541-1.307l5.932-2.457a1 1 0 0 1 1.307.541"/>
    <path data-name="패스 1127" d="m15.485 30.663.1.04a1 1 0 0 1 .541 1.307l-2.457 5.933a1 1 0 0 1-1.307.541l-.1-.04a1 1 0 0 1-.541-1.307l2.456-5.93a1 1 0 0 1 1.307-.541"/>
    <path data-name="패스 1128" d="m27.64 1.517.1.04a1 1 0 0 1 .541 1.307l-2.46 5.932a1 1 0 0 1-1.307.541l-.1-.04a1 1 0 0 1-.541-1.307l2.457-5.932a1 1 0 0 1 1.307-.541"/>
    <path data-name="패스 1129" d="m28.251 11.877-.075-.075a1 1 0 0 1 0-1.414l4.541-4.541a1 1 0 0 1 1.414 0l.075.075a1 1 0 0 1 0 1.414l-4.541 4.541a1 1 0 0 1-1.414 0"/>
    <path data-name="패스 1130" d="m5.868 34.153-.075-.075a1 1 0 0 1 0-1.414l4.541-4.541a1 1 0 0 1 1.414 0l.075.075a1 1 0 0 1 0 1.414l-4.541 4.541a1 1 0 0 1-1.414 0"/>
    <path data-name="패스 1131" d="M31.579 20.09v-.105a1 1 0 0 1 1-1H39a1 1 0 0 1 1 1v.105a1 1 0 0 1-1 1h-6.421a1 1 0 0 1-1-1"/>
    <path data-name="패스 1132" d="M0 29.469v-.105a1 1 0 0 1 1-1h6.421a1 1 0 0 1 1 1v.105a1 1 0 0 1-1 1H1a1 1 0 0 1-1-1" transform="translate(0 -9.455)" style="fill:#999"/>
    <path data-name="패스 1133" d="m28.123 28.252.075-.075a1 1 0 0 1 1.414 0l4.541 4.541a1 1 0 0 1 0 1.414l-.075.075a1 1 0 0 1-1.414 0l-4.541-4.541a1 1 0 0 1 0-1.414"/>
    <path data-name="패스 1134" d="m8.625 8.618.075-.074a1 1 0 0 1 1.414 0l4.541 4.541a1 1 0 0 1 0 1.414l-.075.075a1 1 0 0 1-1.414 0l-4.541-4.542a1 1 0 0 1 0-1.414" transform="translate(-2.777 -2.75)" style="fill:#999"/>
</svg>
