<svg xmlns="http://www.w3.org/2000/svg" width="125" height="30" viewBox="0 0 125 30">
    <g data-name="Group 297">
        <g data-name="wizwid logo">
            <path data-name="Path 1" d="M339.748 120.41h-3.239l5.741 13.065h1.061l3.89-8.212 4.049 8.149h1.032l5.478-13.157h-3.1l-2.937 7.045-3.414-6.96h-2.3l-3.334 7.045z" transform="translate(-326.509 -111.998)" style="fill:#fff"/>
            <path data-name="Path 2" d="M439.247 120.41h-3.239l5.741 13.065h1.061l3.89-8.212 4.049 8.149h1.032l5.478-13.157h-3.1l-2.937 7.045-3.414-6.96h-2.3l-3.334 7.045z" transform="translate(-374.726 -111.998)" style="fill:#fff"/>
            <path data-name="Path 3" d="M389.771 120.409h-2.778l-2.937 13.072h2.7z" transform="translate(-349.55 -112.067)" style="fill:#fff"/>
            <path data-name="Path 4" d="M489.732 120.409h-2.778l-2.937 13.072h2.7z" transform="translate(-397.991 -112.067)" style="fill:#fff"/>
            <path data-name="Path 5" d="M416.369 120.1H404.7v2.122h6.827l-6.986 10.95h11.908v-2.122h-6.986z" transform="translate(-359.477 -111.929)" style="fill:#fff"/>
            <path data-name="Path 6" d="m511.59 119.791-5.24.085v13.241h6.668s5.8-.255 5.8-6.96-7.228-6.366-7.228-6.366zm1.667 10.78h-3.731v-8.233l-.159-.17h3.176s3.255-.17 3.255 3.989-2.542 4.414-2.542 4.414z" transform="translate(-408.813 -111.788)" style="fill:#fff"/>
        </g>
    </g>
</svg>
