<svg xmlns="http://www.w3.org/2000/svg" width="125" height="30" viewBox="0 0 125 30">
    <g data-name="Group 297">
        <g data-name="wizwid logo">
            <path data-name="Path 1" d="M13.239 8.412H10l5.741 13.065h1.061l3.89-8.212 4.049 8.149h1.032l5.478-13.157h-3.1l-2.937 7.045-3.414-6.96h-2.3l-3.334 7.045z"/>
            <path data-name="Path 2" d="M64.521 8.412h-3.239l5.741 13.065h1.061l3.89-8.212 4.049 8.149h1.032l5.478-13.157h-3.1l-2.937 7.045-3.414-6.96h-2.3l-3.334 7.045z"/>
            <path data-name="Path 3" d="M40.221 8.342h-2.778l-2.937 13.072h2.7z"/>
            <path data-name="Path 4" d="M91.741 8.342h-2.778l-2.937 13.072h2.7z"/>
            <path data-name="Path 5" d="M56.892 8.171H45.223v2.122h6.827l-6.986 10.95h11.908v-2.122h-6.986z"/>
            <path data-name="Path 6" d="m102.777 8.003-5.24.085v13.241h6.668s5.8-.255 5.8-6.96-7.228-6.366-7.228-6.366zm1.667 10.78h-3.731V10.55l-.159-.17h3.176s3.255-.17 3.255 3.989-2.542 4.414-2.542 4.414z"/>
        </g>
    </g>
</svg>
