<svg id="wizwid_logo" data-name="wizwid logo" xmlns="http://www.w3.org/2000/svg" width="145" height="18.676" viewBox="0 0 145 18.676">
  <path id="Path_1" data-name="Path 1" d="M341.205,120.47h-4.7l8.325,18.1h1.539l5.64-11.379,5.871,11.292h1.5l7.943-18.231h-4.489l-4.259,9.763-4.95-9.645h-3.338l-4.834,9.762Z" transform="translate(-336.509 -119.898)"/>
  <path id="Path_2" data-name="Path 2" d="M440.7,120.47h-4.7l8.325,18.1h1.539l5.641-11.379,5.871,11.292h1.5l7.943-18.231h-4.489l-4.259,9.763-4.949-9.645h-3.338l-4.834,9.762Z" transform="translate(-361.649 -119.898)"/>
  <path id="Path_3" data-name="Path 3" d="M392.343,120.409h-4.028l-4.259,18.113h3.914Z" transform="translate(-348.522 -119.935)"/>
  <path id="Path_4" data-name="Path 4" d="M492.3,120.409h-4.029l-4.259,18.113h3.914Z" transform="translate(-373.779 -119.935)"/>
  <path id="Path_5" data-name="Path 5" d="M421.691,120.1H404.771v2.941h9.9l-10.13,15.173h17.266v-2.94H411.677Z" transform="translate(-353.698 -119.862)"/>
  <path id="Path_6" data-name="Path 6" d="M513.948,119.792l-7.6.118v18.348h9.67s8.4-.353,8.4-9.645S513.948,119.792,513.948,119.792Zm2.417,14.938h-5.411V123.321l-.23-.235h4.6s4.719-.235,4.719,5.528S516.365,134.729,516.365,134.729Z" transform="translate(-379.422 -119.788)"/>
</svg>
