<svg data-name="wizwid logo" xmlns="http://www.w3.org/2000/svg" width="89.039" height="12" viewBox="0 0 89.039 12">
    <path data-name="패스 1" d="M339.393 120.393h-2.884l5.112 11.633h.945l3.464-7.312 3.6 7.256h.919l4.877-11.715h-2.757l-2.615 6.273-3.039-6.2h-2.05L342 126.6z" transform="translate(-336.509 -120.026)" style="fill:#fff"/>
    <path data-name="패스 2" d="M438.892 120.393h-2.884l5.112 11.633h.945l3.464-7.312 3.6 7.256h.919l4.877-11.715h-2.757l-2.615 6.273-3.039-6.2h-2.05L441.5 126.6z" transform="translate(-390.347 -120.026)" style="fill:#fff"/>
    <path data-name="패스 3" d="M389.145 120.409h-2.474l-2.615 11.639h2.4z" transform="translate(-362.236 -120.104)" style="fill:#fff"/>
    <path data-name="패스 4" d="M489.106 120.409h-2.474l-2.615 11.639h2.4z" transform="translate(-416.324 -120.104)" style="fill:#fff"/>
    <path data-name="패스 5" d="M415.072 120.1h-10.39v1.889h6.079l-6.22 9.749h10.6v-1.889h-6.22z" transform="translate(-373.32 -119.947)" style="fill:#fff"/>
    <path data-name="패스 6" d="m511.015 119.79-4.665.076v11.79h5.937s5.16-.227 5.16-6.2-6.432-5.666-6.432-5.666zm1.484 9.6h-3.322v-7.331l-.141-.151h2.827s2.9-.151 2.9 3.552-2.263 3.929-2.263 3.929z" transform="translate(-428.408 -119.788)" style="fill:#fff"/>
</svg>
