<svg xmlns="http://www.w3.org/2000/svg" width="38.65" height="41.431" viewBox="0 0 38.65 41.431">
    <path d="M13.45 0a5.269 5.269 0 0 0-3.724 9 6.383 6.383 0 0 0 2.434 1.324c.155.054.314.106.475.157H.665A.667.667 0 0 0 0 11.15v5.371a.666.666 0 0 0 .665.664h.791v23.582a.667.667 0 0 0 .664.664h34.4a.667.667 0 0 0 .669-.664V17.182h.787a.666.666 0 0 0 .669-.664v-5.37a.667.667 0 0 0-.669-.669H26.015c.16-.051.319-.1.474-.157a6.391 6.391 0 0 0 2.435-1.324 5.272 5.272 0 0 0-7.452-7.458 6.4 6.4 0 0 0-1.328 2.435 25.214 25.214 0 0 0-.82 3.064 25.28 25.28 0 0 0-.824-3.064 6.392 6.392 0 0 0-1.324-2.435A5.253 5.253 0 0 0 13.448 0zm0 1.324a3.92 3.92 0 0 1 2.784 1.156 5.833 5.833 0 0 1 1.013 1.938 24.373 24.373 0 0 1 .792 2.971c.325 1.558.409 2.377.482 2.952-.573-.072-1.392-.156-2.951-.482a24.346 24.346 0 0 1-2.966-.792 5.847 5.847 0 0 1-1.939-1.013 3.943 3.943 0 0 1 2.785-6.73zm11.746 0a3.943 3.943 0 0 1 2.784 6.73 5.8 5.8 0 0 1-1.933 1.013 24.372 24.372 0 0 1-2.971.793c-1.556.325-2.372.409-2.947.482.072-.575.158-1.394.483-2.952a24.421 24.421 0 0 1 .791-2.971 5.838 5.838 0 0 1 1.009-1.938 3.92 3.92 0 0 1 2.784-1.156zM1.334 11.811h14.737v4.039H1.334zm16.07 0h3.837v28.293h-3.837zm5.171 0h14.743v4.039H22.575zM2.789 17.182h13.282v22.922H2.79zm19.786 0h13.286v22.922H22.575z"/>
</svg>
