<svg xmlns="http://www.w3.org/2000/svg" width="60" height="60" viewBox="0 0 60 60">
    <path data-name="Rectangle 1834" style="opacity:.4;fill:none" d="M0 0h60v60H0z"/>
    <path data-name="Path 1159" d="M45.385 28.154H3.049c-1.533 0-2.657-.45-2.191-1.911l3.586-6.223h39.479l3.585 6.223c.466 1.457-.589 1.911-2.123 1.911z" transform="translate(5.517 17.118)" style="stroke-miterlimit:10;stroke-width:1.5px;fill:#fff;stroke:#000"/>
    <g data-name="Rectangle 1916" transform="translate(9.5 11)" style="stroke-width:1.4px;fill:#fff;stroke:#000">
        <rect width="40.48" height="26.802" rx="2" style="stroke:none"/>
        <rect x=".7" y=".7" width="39.08" height="25.402" rx="1.3" style="fill:none"/>
    </g>
    <g data-name="Group 1211" transform="translate(6.661 10.393)">
        <circle data-name="Ellipse 230" cx="11" cy="11" r="11" transform="translate(30.186 21.408)" style="stroke-miterlimit:10;stroke-width:1.5px;fill:#fff;stroke:#000"/>
        <path data-name="Path 1161" d="M26.3 24.592h1.222l-.9-3.277h.78l.855 3.277h1.566l.911-3.277h.636l.849 3.277h1.485l.824-3.277h.761l-.874 3.277h1.3v.529h-1.442l-.892 3.327h-.812l-.88-3.327h-1.378l-.924 3.327h-.8l-.917-3.327H26.3zm2.72 3.011c.012-.09.039-.218.079-.383s.231-.865.577-2.1h-1.287l.487 1.857a5.978 5.978 0 0 1 .118.626zm1.442-3.011h1.086l-.406-1.537a2.484 2.484 0 0 1-.106-.645h-.018a1.7 1.7 0 0 1-.029.211q-.022.114-.527 1.971m2.513 3.008a2.2 2.2 0 0 1 .04-.24q.035-.167.553-2.238h-1.211l.461 1.775a6.143 6.143 0 0 1 .144.7z" transform="translate(10.176 7.891)" style="fill:#1bd9ba;stroke:#1bd9ba;stroke-width:.5px"/>
    </g>
    <path data-name="Rectangle 1881" d="M16.763 19h26v1.5h-26z"/>
    <path data-name="Rectangle 1882" d="M16.763 24.432h17v1.5h-17z"/>
</svg>
