<svg xmlns="http://www.w3.org/2000/svg" width="56" height="56" viewBox="0 0 56 56">
    <path data-name="사각형 2029" style="opacity:.5;fill:none" d="M0 0h56v56H0z"/>
    <g data-name="그룹 1761">
        <path data-name="패스 1641" d="M36.589 8.391h-9.56a5.874 5.874 0 0 0 1.866-2.945 3.967 3.967 0 0 0-.668-3.5A4.025 4.025 0 0 0 24.984.5a6.3 6.3 0 0 0-5.9 4.534l-.152.5-.155-.5A6.286 6.286 0 0 0 12.877.5a4.037 4.037 0 0 0-3.251 1.457 3.949 3.949 0 0 0-.668 3.5A5.944 5.944 0 0 0 10.823 8.4H1.268a.786.786 0 0 0-.768.8v4.686a.785.785 0 0 0 .768.8H2.4v32.232a.785.785 0 0 0 .768.8h31.525a.786.786 0 0 0 .767-.8V14.673h1.129a.785.785 0 0 0 .768-.8V9.19a.786.786 0 0 0-.768-.8M20.572 5.445A4.817 4.817 0 0 1 24.987 2.1a2.568 2.568 0 0 1 2.058.871 2.336 2.336 0 0 1 .361 2.068 4.45 4.45 0 0 1-1.636 2.346 4.627 4.627 0 0 1-2.78 1h-3.173zm-3.714 9.221 4.148.006v5.161l-1.354-1.319a.869.869 0 0 0-1.189-.028l-1.606 1.448zm4.148-1.6h-4.148v-2.822h4.148zM10.452 5.038a2.332 2.332 0 0 1 .361-2.068 2.566 2.566 0 0 1 2.057-.87 4.808 4.808 0 0 1 4.415 3.345l.743 2.945h-3.171a4.688 4.688 0 0 1-2.77-1.006 4.44 4.44 0 0 1-1.635-2.347m-8.416 8.032v-3.09h13.047v3.09zM3.932 46.1V14.665h11.151v7.282a.932.932 0 0 0 .513.836.875.875 0 0 0 .166.048h.407a.876.876 0 0 0 .377-.187l2.476-2.222 2.262 2.2a.85.85 0 0 0 .344.205h.517a.982.982 0 0 0 .1-.029.921.921 0 0 0 .532-.848v-7.28h11.139v30.122l.008 1.311zm31.889-33.031H22.774v-3.09h13.047z" transform="translate(7.788 2.786)" style="stroke:transparent;fill:#040405"/>
        <path data-name="패스 1642" d="M36.589 8.391h-9.56a5.874 5.874 0 0 0 1.866-2.945 3.967 3.967 0 0 0-.668-3.5A4.025 4.025 0 0 0 24.984.5a6.3 6.3 0 0 0-5.9 4.534l-.152.5-.155-.5A6.286 6.286 0 0 0 12.877.5a4.037 4.037 0 0 0-3.251 1.457 3.949 3.949 0 0 0-.668 3.5A5.944 5.944 0 0 0 10.823 8.4H1.268a.786.786 0 0 0-.768.8v4.686a.785.785 0 0 0 .768.8H2.4v32.232a.785.785 0 0 0 .768.8h31.525a.786.786 0 0 0 .767-.8V14.673h1.129a.785.785 0 0 0 .768-.8V9.19a.786.786 0 0 0-.768-.799zM20.572 5.445A4.817 4.817 0 0 1 24.987 2.1a2.568 2.568 0 0 1 2.058.871 2.336 2.336 0 0 1 .361 2.068 4.45 4.45 0 0 1-1.636 2.346 4.627 4.627 0 0 1-2.78 1h-3.173zm-3.714 9.221 4.148.006v5.161l-1.354-1.319a.869.869 0 0 0-1.189-.028l-1.606 1.448zm4.148-1.6h-4.148v-2.822h4.148zM10.452 5.038a2.332 2.332 0 0 1 .361-2.068 2.566 2.566 0 0 1 2.057-.87 4.808 4.808 0 0 1 4.415 3.345l.743 2.945h-3.171a4.688 4.688 0 0 1-2.77-1.006 4.44 4.44 0 0 1-1.635-2.346zm-8.416 8.031v-3.09h13.047v3.09zM3.932 46.1V14.665h11.151v7.282a.932.932 0 0 0 .513.836.875.875 0 0 0 .166.048h.407a.876.876 0 0 0 .377-.187l2.476-2.222 2.262 2.2a.85.85 0 0 0 .344.205h.517a.982.982 0 0 0 .1-.029.921.921 0 0 0 .532-.848v-7.28h11.139v30.122l.008 1.311zm31.889-33.031H22.774v-3.09h13.047z" transform="translate(7.788 2.786)" style="stroke:#f8f8f8;stroke-width:.4px;fill:none"/>
        <path data-name="패스 1643" d="M22.763 27.521a.874.874 0 0 0 .171.048h.423a.929.929 0 0 0 .391-.182l2.573-2.167 2.35 2.149a.9.9 0 0 0 .358.2h.536a1 1 0 0 0 .1-.029.9.9 0 0 0 .553-.827V13.487H25.15v.006h-2.921v13.213a.9.9 0 0 0 .534.815m1.31-12.227h4.311v9.351l-1.408-1.286a.947.947 0 0 0-1.235-.027l-1.668 1.412z" transform="translate(.493 -.931)" style="fill:#00bab4;stroke:transparent"/>
        <path data-name="패스 1644" d="M24.168 15.067h5.393v12.14l-1.761-1.67a1.152 1.152 0 0 0-1.545-.035l-2.087 1.833z" transform="translate(-.146 -2.511)" style="fill:#f8f8f8;stroke:transparent"/>
    </g>
</svg>
