<svg xmlns="http://www.w3.org/2000/svg" xmlns:xlink="http://www.w3.org/1999/xlink" width="46" height="56" viewBox="0 0 46 56">
  <defs>
    <style>
      .cls-1 {
        fill: none;
      }

      .cls-2 {
        fill: #d6ae3f;
      }

      .cls-3 {
        fill: #fff;
      }

      .cls-4 {
        clip-path: url(#clip-path);
      }
    </style>
    <clipPath id="clip-path">
      <rect id="사각형_2076" data-name="사각형 2076" class="cls-1" width="20.67" height="5.054" transform="translate(0 0)"/>
    </clipPath>
  </defs>
  <g id="icon_GOLD" transform="translate(-54 -205)">
    <rect id="사각형_1680" data-name="사각형 1680" class="cls-2" width="46" height="56" rx="4" transform="translate(54 205)"/>
    <path id="패스_1321" data-name="패스 1321" class="cls-3" d="M543.9,71.507a7.7,7.7,0,0,1-2.914-.545,7.368,7.368,0,0,1-2.369-1.526,7.136,7.136,0,0,1-1.585-7.888,7.134,7.134,0,0,1,3.915-3.806,7.647,7.647,0,0,1,2.894-.545,7.849,7.849,0,0,1,3.33.724,6.81,6.81,0,0,1,2.557,1.992l-2.4,2.16a4.479,4.479,0,0,0-1.556-1.308,4.3,4.3,0,0,0-1.932-.436,3.8,3.8,0,0,0-1.536.307,3.88,3.88,0,0,0-1.229.842,3.731,3.731,0,0,0-.813,1.268,4.364,4.364,0,0,0-.287,1.606,4.3,4.3,0,0,0,.3,1.615,3.787,3.787,0,0,0,.842,1.288,3.951,3.951,0,0,0,2.844,1.159,3.793,3.793,0,0,0,1.477-.277,3.351,3.351,0,0,0,1.14-.773,2.836,2.836,0,0,0,.674-1.13h-3.746V63.282h7.433v.991a7.732,7.732,0,0,1-.525,2.884,7.064,7.064,0,0,1-1.467,2.3,6.516,6.516,0,0,1-2.23,1.516,7.264,7.264,0,0,1-2.814.535" transform="translate(-466.471 179.275)"/>
    <g id="그룹_1769" data-name="그룹 1769" transform="translate(66.665 217.973)">
      <g id="그룹_1768" data-name="그룹 1768" class="cls-4">
        <path id="패스_1793" data-name="패스 1793" class="cls-3" d="M2.533,5.054a2.485,2.485,0,0,1-.99-.2A2.536,2.536,0,0,1,.195,3.51,2.485,2.485,0,0,1,0,2.527a2.506,2.506,0,0,1,.192-.984,2.477,2.477,0,0,1,.539-.8A2.5,2.5,0,0,1,2.526,0,2.753,2.753,0,0,1,3.6.21a2.444,2.444,0,0,1,.862.6l-.364.371a1.9,1.9,0,0,0-.7-.5A2.192,2.192,0,0,0,2.526.5a1.96,1.96,0,0,0-.78.155,1.929,1.929,0,0,0-.63.43,2.021,2.021,0,0,0-.42.644,2.1,2.1,0,0,0-.15.8,2.11,2.11,0,0,0,.15.8,1.98,1.98,0,0,0,.42.647,1.931,1.931,0,0,0,.63.431,1.977,1.977,0,0,0,.78.154,1.86,1.86,0,0,0,.9-.217,1.776,1.776,0,0,0,.651-.6,1.8,1.8,0,0,0,.29-.853H2.61V2.415h2.3v.217a2.476,2.476,0,0,1-.183.952,2.391,2.391,0,0,1-.5.77,2.314,2.314,0,0,1-.756.514,2.351,2.351,0,0,1-.938.186"/>
        <path id="패스_1794" data-name="패스 1794" class="cls-3" d="M8.322,5.054a2.5,2.5,0,0,1-1.795-.731,2.485,2.485,0,0,1-.539-.806,2.518,2.518,0,0,1-.192-.99,2.523,2.523,0,0,1,.192-.991A2.5,2.5,0,0,1,7.332.193a2.618,2.618,0,0,1,1.973,0A2.495,2.495,0,0,1,10.65,1.536a2.541,2.541,0,0,1,.193.991,2.536,2.536,0,0,1-.193.99A2.5,2.5,0,0,1,8.322,5.054m0-.5A1.952,1.952,0,0,0,9.1,4.4a1.915,1.915,0,0,0,.626-.431,1.967,1.967,0,0,0,.421-.647,2.107,2.107,0,0,0,.151-.8,2.105,2.105,0,0,0-.151-.8,2.007,2.007,0,0,0-.421-.644A1.912,1.912,0,0,0,9.1.651,1.935,1.935,0,0,0,8.322.5a1.96,1.96,0,0,0-.78.155,1.918,1.918,0,0,0-.63.43,2.021,2.021,0,0,0-.42.644,2.068,2.068,0,0,0-.15.795,2.108,2.108,0,0,0,.15.805,1.98,1.98,0,0,0,.42.647,1.921,1.921,0,0,0,.63.431,1.977,1.977,0,0,0,.78.154"/>
        <path id="패스_1795" data-name="패스 1795" class="cls-3" d="M11.97,4.977V.077h.539V4.494h2.919v.483Z"/>
        <path id="패스_1796" data-name="패스 1796" class="cls-3" d="M16.478,4.976V.076h1.616a2.823,2.823,0,0,1,1.029.182,2.464,2.464,0,0,1,.816.511,2.327,2.327,0,0,1,.539.778,2.44,2.44,0,0,1,.192.979,2.5,2.5,0,0,1-.188.981,2.283,2.283,0,0,1-.536.776,2.46,2.46,0,0,1-.819.512,2.856,2.856,0,0,1-1.033.181Zm.539-.49h1.1a2.1,2.1,0,0,0,.791-.146,1.948,1.948,0,0,0,.637-.414,1.863,1.863,0,0,0,.424-.623,1.968,1.968,0,0,0,.15-.777,1.959,1.959,0,0,0-.15-.776,1.853,1.853,0,0,0-.424-.623,1.9,1.9,0,0,0-.637-.413,2.067,2.067,0,0,0-.791-.148h-1.1Z"/>
      </g>
    </g>
  </g>
</svg>
