<svg xmlns="http://www.w3.org/2000/svg" xmlns:xlink="http://www.w3.org/1999/xlink" width="46" height="56" viewBox="0 0 46 56">
  <defs>
    <style>
      .cls-1 {
        fill: none;
      }

      .cls-2 {
        fill: #79c7ff;
      }

      .cls-3 {
        fill: #fff;
      }

      .cls-4 {
        clip-path: url(#clip-path);
      }
    </style>
    <clipPath id="clip-path">
      <rect id="사각형_2075" data-name="사각형 2075" class="cls-1" width="23.639" height="5.033" transform="translate(0 0)"/>
    </clipPath>
  </defs>
  <g id="icon_SILVER" transform="translate(-54 -205)">
    <rect id="사각형_1680" data-name="사각형 1680" class="cls-2" width="46" height="56" rx="4" transform="translate(54 205)"/>
    <path id="패스_1322" data-name="패스 1322" class="cls-3" d="M778.814,71.668a9.515,9.515,0,0,1-3.353-.619,9.875,9.875,0,0,1-2.954-1.716l1.916-2.495a9.882,9.882,0,0,0,2.355,1.487,5.907,5.907,0,0,0,2.295.449,4.993,4.993,0,0,0,1.357-.16,1.888,1.888,0,0,0,.858-.469,1.013,1.013,0,0,0,.3-.728,1.047,1.047,0,0,0-.439-.9,3.725,3.725,0,0,0-1.5-.5l-3.074-.539a4.485,4.485,0,0,1-2.614-1.3,3.6,3.6,0,0,1-.918-2.535,3.952,3.952,0,0,1,.688-2.335,4.311,4.311,0,0,1,1.976-1.5,8.179,8.179,0,0,1,3.063-.519,9.814,9.814,0,0,1,3.133.529,8.687,8.687,0,0,1,2.734,1.467l-1.816,2.535a7.041,7.041,0,0,0-4.291-1.656,4.3,4.3,0,0,0-1.207.15,1.793,1.793,0,0,0-.778.419.884.884,0,0,0-.269.649.923.923,0,0,0,.389.8,3.242,3.242,0,0,0,1.267.439l2.894.479a5.524,5.524,0,0,1,3.063,1.337,3.51,3.51,0,0,1,1.048,2.634,4.078,4.078,0,0,1-.739,2.445,4.7,4.7,0,0,1-2.115,1.587,8.687,8.687,0,0,1-3.273.559" transform="translate(-701.507 179.335)"/>
    <g id="그룹_1767" data-name="그룹 1767" transform="translate(65.181 217.983)">
      <g id="그룹_1766" data-name="그룹 1766" class="cls-4">
        <path id="패스_1788" data-name="패스 1788" class="cls-3" d="M2.051,5.033A2.729,2.729,0,0,1,.939,4.8,2.8,2.8,0,0,1,0,4.123l.358-.371a2.684,2.684,0,0,0,.808.609,2.1,2.1,0,0,0,.906.2,1.775,1.775,0,0,0,.683-.122A1.088,1.088,0,0,0,3.22,4.1a.805.805,0,0,0,.168-.5.693.693,0,0,0-.262-.581,1.99,1.99,0,0,0-.865-.3L1.554,2.6a2.055,2.055,0,0,1-1.043-.42,1.041,1.041,0,0,1-.336-.818A1.2,1.2,0,0,1,.393.651,1.409,1.409,0,0,1,1,.172,2.183,2.183,0,0,1,1.9,0,3.158,3.158,0,0,1,2.916.168a3.124,3.124,0,0,1,.913.483l-.307.42A2.705,2.705,0,0,0,1.876.462,1.632,1.632,0,0,0,1.26.57a.97.97,0,0,0-.413.3A.725.725,0,0,0,.7,1.323a.629.629,0,0,0,.231.524,1.682,1.682,0,0,0,.764.267l.7.111a2.364,2.364,0,0,1,1.169.453,1.121,1.121,0,0,1,.363.892,1.276,1.276,0,0,1-.237.759,1.573,1.573,0,0,1-.662.518,2.412,2.412,0,0,1-.977.186"/>
        <rect id="사각형_2074" data-name="사각형 2074" class="cls-3" width="0.539" height="4.9" transform="translate(4.942 0.062)"/>
        <path id="패스_1789" data-name="패스 1789" class="cls-3" d="M6.839,4.963V.063h.539V4.48H10.3v.483Z"/>
        <path id="패스_1790" data-name="패스 1790" class="cls-3" d="M11.76,4.963,9.751.063h.581l1.771,4.4,1.8-4.4h.545l-2.037,4.9Z"/>
        <path id="패스_1791" data-name="패스 1791" class="cls-3" d="M15.295,4.963V.063H18.8V.539H15.834V2.254h1.939v.469H15.834V4.487h3v.476Z"/>
        <path id="패스_1792" data-name="패스 1792" class="cls-3" d="M19.887,4.963V.062h2.1a1.882,1.882,0,0,1,.839.176,1.341,1.341,0,0,1,.557.489,1.359,1.359,0,0,1,.2.742,1.267,1.267,0,0,1-.283.83,1.5,1.5,0,0,1-.76.487l1.1,2.177h-.595l-1.05-2.108H20.426V4.963ZM20.426,2.4h1.526a1.187,1.187,0,0,0,.794-.253.841.841,0,0,0,.3-.679.835.835,0,0,0-.3-.672,1.192,1.192,0,0,0-.794-.251H20.426Z"/>
      </g>
    </g>
  </g>
</svg>
