<svg xmlns="http://www.w3.org/2000/svg" xmlns:xlink="http://www.w3.org/1999/xlink" width="46" height="56" viewBox="0 0 46 56">
  <defs>
    <style>
      .cls-1 {
        fill: none;
      }

      .cls-2 {
        fill: #b5d78e;
      }

      .cls-3 {
        fill: #fff;
      }

      .cls-4 {
        clip-path: url(#clip-path);
      }
    </style>
    <clipPath id="clip-path">
      <rect id="사각형_2072" data-name="사각형 2072" class="cls-1" width="31.122" height="4.332" transform="translate(0 0)"/>
    </clipPath>
  </defs>
  <g id="icon_WELCOME" transform="translate(-54 -205)">
    <rect id="사각형_1680" data-name="사각형 1680" class="cls-2" width="46" height="56" rx="4" transform="translate(54 205)"/>
    <path id="패스_1324" data-name="패스 1324" class="cls-3" d="M1241.188,76.187,1238.1,62.308h3.51l1.685,8.565,2.419-8.565h3.192l2.419,8.565,1.685-8.565h3.39L1253.3,76.187h-3.609l-2.439-8.843-2.459,8.843Z" transform="translate(-1170.095 174.374)"/>
    <g id="그룹_1764" data-name="그룹 1764" transform="translate(61.439 217)">
      <path id="패스_1776" data-name="패스 1776" class="cls-3" d="M4.428.065l-.72,3.456L2.67.065H2.219L1.182,3.533.468.065H0l.906,4.2h.468L2.442.708,3.5,4.265h.468l.906-4.2Z"/>
      <path id="패스_1777" data-name="패스 1777" class="cls-3" d="M5.783.065v4.2h3.03V3.858H6.245V2.346H7.907v-.4H6.245V.474H8.789V.065Z"/>
      <path id="패스_1778" data-name="패스 1778" class="cls-3" d="M9.72.065v4.2h2.964V3.851h-2.5V.065Z"/>
      <g id="그룹_1763" data-name="그룹 1763">
        <g id="그룹_1762" data-name="그룹 1762" class="cls-4">
          <path id="패스_1779" data-name="패스 1779" class="cls-3" d="M15.174,4.332a2.22,2.22,0,0,1-.853-.165,2.172,2.172,0,0,1-.695-.462,2.122,2.122,0,0,1-.465-.69A2.171,2.171,0,0,1,13,2.166a2.176,2.176,0,0,1,.165-.85,2.107,2.107,0,0,1,.465-.689,2.14,2.14,0,0,1,.695-.462A2.2,2.2,0,0,1,15.174,0a2.4,2.4,0,0,1,.633.081,2.319,2.319,0,0,1,.564.233,2.08,2.08,0,0,1,.465.375l-.307.325a1.631,1.631,0,0,0-.6-.435,1.9,1.9,0,0,0-.75-.153A1.722,1.722,0,0,0,14.5.558a1.63,1.63,0,0,0-.543.369,1.718,1.718,0,0,0-.36.551,1.8,1.8,0,0,0-.129.688,1.806,1.806,0,0,0,.129.684,1.675,1.675,0,0,0,.363.554,1.655,1.655,0,0,0,.549.369,1.744,1.744,0,0,0,.681.132,1.875,1.875,0,0,0,.744-.152,1.688,1.688,0,0,0,.594-.423l.3.312a2.334,2.334,0,0,1-.47.372,2.264,2.264,0,0,1-.561.237,2.36,2.36,0,0,1-.618.081"/>
          <path id="패스_1780" data-name="패스 1780" class="cls-3" d="M19.644,4.332a2.189,2.189,0,0,1-.849-.165A2.167,2.167,0,0,1,18.1,3.7a2.139,2.139,0,0,1-.462-.691,2.166,2.166,0,0,1-.165-.848,2.176,2.176,0,0,1,.165-.85A2.141,2.141,0,0,1,18.8.165a2.251,2.251,0,0,1,1.692,0,2.141,2.141,0,0,1,1.152,1.151,2.176,2.176,0,0,1,.165.85,2.166,2.166,0,0,1-.165.848,2.139,2.139,0,0,1-.462.691,2.143,2.143,0,0,1-1.533.627m0-.427a1.648,1.648,0,0,0,1.2-.5,1.693,1.693,0,0,0,.36-.555,1.8,1.8,0,0,0,.129-.683,1.8,1.8,0,0,0-.129-.688,1.723,1.723,0,0,0-.36-.552,1.642,1.642,0,0,0-1.2-.5,1.684,1.684,0,0,0-.669.131,1.653,1.653,0,0,0-.54.369,1.723,1.723,0,0,0-.36.552,1.783,1.783,0,0,0-.129.681,1.818,1.818,0,0,0,.129.69,1.693,1.693,0,0,0,.36.555,1.653,1.653,0,0,0,.54.369,1.685,1.685,0,0,0,.669.132"/>
          <path id="패스_1781" data-name="패스 1781" class="cls-3" d="M22.77,4.266V.066h.647l1.435,2.982L26.279.066h.648v4.2H26.49V.594L24.845,3.966,23.2.6V4.266Z"/>
          <path id="패스_1782" data-name="패스 1782" class="cls-3" d="M28.092,4.266V.066H31.1V.474H28.554v1.47h1.662v.4H28.554V3.858h2.568v.408Z"/>
        </g>
      </g>
    </g>
  </g>
</svg>
