<svg xmlns="http://www.w3.org/2000/svg" width="46" height="56" viewBox="0 0 46 56">
    <defs>
        <clipPath id="ch0p5w1wra">
            <path data-name="사각형 2079" style="fill:none" d="M0 0h23.52v5.054H0z"/>
        </clipPath>
    </defs>
    <g transform="translate(-54 -205)">
        <rect data-name="사각형 1680" width="46" height="56" rx="4" transform="translate(54 205)"/>
        <path data-name="패스 664" d="M62.712 72.492V58.309h7.031a6.093 6.093 0 0 1 2.563.506 4.183 4.183 0 0 1 1.732 1.408 3.545 3.545 0 0 1 .628 2.077 3.224 3.224 0 0 1-.436 1.631 3.983 3.983 0 0 1-1.185 1.287 4.17 4.17 0 0 1 1.51 1.317 3.081 3.081 0 0 1 .557 1.783 3.836 3.836 0 0 1-.628 2.178 4.169 4.169 0 0 1-1.763 1.469 6.192 6.192 0 0 1-2.634.527zm3.485-8.53h3.323a1.8 1.8 0 0 0 1.216-.384 1.386 1.386 0 0 0 0-2.037 1.832 1.832 0 0 0-1.216-.375H66.2zm0 5.673h3.627a1.919 1.919 0 0 0 1.287-.405 1.495 1.495 0 0 0 0-2.188 1.92 1.92 0 0 0-1.287-.405H66.2z" transform="translate(8.288 178.512)" style="fill:#fff"/>
        <g data-name="그룹 1774">
            <g data-name="그룹 1773" style="clip-path:url(#ch0p5w1wra)" transform="translate(65.48 217.973)">
                <path data-name="패스 1799" d="M0 4.977V.076h1.988a2 2 0 0 1 .822.155 1.217 1.217 0 0 1 .536.437 1.172 1.172 0 0 1 .189.669 1.1 1.1 0 0 1-.2.657 1.254 1.254 0 0 1-.55.428 1.4 1.4 0 0 1 .7.44 1.116 1.116 0 0 1 .256.736 1.29 1.29 0 0 1-.207.731 1.336 1.336 0 0 1-.581.48 2.126 2.126 0 0 1-.878.168zm.539-2.765H1.96a1.192 1.192 0 0 0 .76-.225.734.734 0 0 0 .28-.608.736.736 0 0 0-.28-.609 1.191 1.191 0 0 0-.76-.224H.539zm0 2.3H2.03a1.317 1.317 0 0 0 .847-.252.818.818 0 0 0 .315-.672.819.819 0 0 0-.315-.673 1.317 1.317 0 0 0-.847-.252H.539z" style="fill:#fff"/>
                <path data-name="패스 1800" d="M4.879 4.977v-4.9h.539v4.417h2.919v.483z" style="fill:#fff"/>
                <path data-name="패스 1801" d="m9.051 4.977 2.03-4.9h.652l2.015 4.9h-.588l-.616-1.54h-2.309l-.624 1.54zm1.372-2h1.933L11.39.574z" style="fill:#fff"/>
                <path data-name="패스 1802" d="M16.66 5.054a2.535 2.535 0 0 1-1.807-.731 2.462 2.462 0 0 1-.542-.806 2.518 2.518 0 0 1-.192-.99 2.523 2.523 0 0 1 .192-.991 2.454 2.454 0 0 1 .542-.8 2.5 2.5 0 0 1 .813-.539A2.542 2.542 0 0 1 16.66 0a2.893 2.893 0 0 1 .74.094 2.678 2.678 0 0 1 .658.273 2.321 2.321 0 0 1 .542.438l-.356.378a1.919 1.919 0 0 0-.707-.508A2.217 2.217 0 0 0 16.66.5a2 2 0 0 0-.791.155 1.914 1.914 0 0 0-.634.43 2.038 2.038 0 0 0-.42.644 2.1 2.1 0 0 0-.15.8 2.11 2.11 0 0 0 .15.8A1.954 1.954 0 0 0 15.879 4.4a2.048 2.048 0 0 0 .8.154 2.169 2.169 0 0 0 .868-.179 1.937 1.937 0 0 0 .692-.493l.351.364a2.691 2.691 0 0 1-.55.434 2.556 2.556 0 0 1-.654.276 2.718 2.718 0 0 1-.721.095" style="fill:#fff"/>
                <path data-name="패스 1803" d="M19.684 4.977v-4.9h.539V2.4L22.757.077h.707l-2.66 2.4 2.716 2.5h-.756l-2.541-2.352v2.352z" style="fill:#fff"/>
            </g>
        </g>
    </g>
</svg>
