<svg xmlns="http://www.w3.org/2000/svg" width="19.82" height="15.675" viewBox="0 0 19.82 15.675">
    <g data-name="*IC_Refresh">
        <path data-name="Path 1131" d="M3.708 6.667A6.6 6.6 0 0 1 9.82 1.223a6.264 6.264 0 0 1 4.784 2.311l.844-.979A7.476 7.476 0 0 0 9.82 0a7.358 7.358 0 0 0-7.305 6.667H0l3.1 3.983 3.17-3.983z"/>
        <path data-name="Path 1525" d="M16.112 9.008A6.6 6.6 0 0 1 10 14.452a6.264 6.264 0 0 1-4.78-2.311l-.844.979A7.476 7.476 0 0 0 10 15.675a7.358 7.358 0 0 0 7.305-6.667h2.515l-3.1-3.983-3.17 3.983z"/>
    </g>
</svg>
