<svg xmlns="http://www.w3.org/2000/svg" width="130" height="90" viewBox="0 0 130 90">
    <defs>
        <clipPath id="1yl3nsjefa">
            <path data-name="Rectangle 2027" style="fill:none" d="M0 0h51.13v62.788H0z"/>
        </clipPath>
    </defs>
    <path data-name="Rectangle 1611" style="fill:#f8f8f8" d="M0 0h130v90H0z"/>
    <path data-name="Rectangle 2029" transform="translate(33 13)" style="opacity:.5;fill:none" d="M0 0h65v65H0z"/>
    <g data-name="Group 1570" transform="translate(39.652 14)" style="clip-path:url(#1yl3nsjefa)">
        <path data-name="Path 1641" d="M49.664 10.84H36.64a7.668 7.668 0 0 0 2.541-3.86 5.041 5.041 0 0 0-.91-4.582A5.581 5.581 0 0 0 33.854.5a8.54 8.54 0 0 0-8.044 5.946l-.207.661-.211-.65A8.518 8.518 0 0 0 17.349.516a5.6 5.6 0 0 0-4.418 1.894 5.019 5.019 0 0 0-.91 4.582 7.759 7.759 0 0 0 2.542 3.859H1.546A1.05 1.05 0 0 0 .5 11.9v6.14a1.049 1.049 0 0 0 1.046 1.046h1.538v42.235a1.049 1.049 0 0 0 1.046 1.047h42.95a1.049 1.049 0 0 0 1.045-1.046V19.071h1.538a1.049 1.049 0 0 0 1.046-1.046v-6.139a1.05 1.05 0 0 0-1.046-1.046m-21.82-3.861A6.533 6.533 0 0 1 33.858 2.6a3.566 3.566 0 0 1 2.8 1.141 2.967 2.967 0 0 1 .491 2.709 5.836 5.836 0 0 1-2.228 3.075 6.459 6.459 0 0 1-3.787 1.308h-4.319zm-5.059 12.083 5.651.007v6.763L26.59 24.1a1.218 1.218 0 0 0-1.62-.037l-2.187 1.9zm5.651-2.093h-5.651v-3.7h5.651zM14.057 6.446a2.961 2.961 0 0 1 .491-2.709 3.564 3.564 0 0 1 2.8-1.14 6.52 6.52 0 0 1 6.015 4.383l1.012 3.859h-4.317a6.544 6.544 0 0 1-3.773-1.318 5.823 5.823 0 0 1-2.228-3.075M2.593 16.97v-4.05h17.773v4.05zm2.582 43.284V19.06h15.191v9.54a1.114 1.114 0 0 0 .925 1.159h.554a1.212 1.212 0 0 0 .513-.245l3.374-2.914 3.081 2.888a1.168 1.168 0 0 0 .468.269h.7a1.378 1.378 0 0 0 .133-.039 1.2 1.2 0 0 0 .725-1.112v-9.535h15.183v39.465l.011 1.718zm43.441-43.285H30.844V12.92h17.773z" transform="translate(-.04 -.04)" style="fill:#040405"/>
        <path data-name="Path 1642" d="M49.664 10.84H36.64a7.668 7.668 0 0 0 2.541-3.86 5.041 5.041 0 0 0-.91-4.582A5.581 5.581 0 0 0 33.854.5a8.54 8.54 0 0 0-8.044 5.946l-.207.661-.211-.65A8.518 8.518 0 0 0 17.349.516a5.6 5.6 0 0 0-4.418 1.894 5.019 5.019 0 0 0-.91 4.582 7.759 7.759 0 0 0 2.542 3.859H1.546A1.05 1.05 0 0 0 .5 11.9v6.14a1.049 1.049 0 0 0 1.046 1.046h1.538v42.235a1.049 1.049 0 0 0 1.046 1.047h42.95a1.049 1.049 0 0 0 1.045-1.046V19.071h1.538a1.049 1.049 0 0 0 1.046-1.046v-6.139a1.05 1.05 0 0 0-1.045-1.046zM27.843 6.979A6.533 6.533 0 0 1 33.858 2.6a3.566 3.566 0 0 1 2.8 1.141 2.967 2.967 0 0 1 .491 2.709 5.836 5.836 0 0 1-2.228 3.075 6.459 6.459 0 0 1-3.787 1.308h-4.319zm-5.059 12.083 5.651.007v6.763L26.59 24.1a1.218 1.218 0 0 0-1.62-.037l-2.187 1.9zm5.651-2.093h-5.651v-3.7h5.651zM14.057 6.446a2.961 2.961 0 0 1 .491-2.709 3.564 3.564 0 0 1 2.8-1.14 6.52 6.52 0 0 1 6.015 4.383l1.012 3.859h-4.317a6.544 6.544 0 0 1-3.773-1.318 5.823 5.823 0 0 1-2.228-3.075zM2.593 16.97v-4.05h17.773v4.05zm2.582 43.284V19.06h15.191v9.54a1.114 1.114 0 0 0 .925 1.159h.554a1.212 1.212 0 0 0 .513-.245l3.374-2.914 3.081 2.888a1.168 1.168 0 0 0 .468.269h.7a1.378 1.378 0 0 0 .133-.039 1.2 1.2 0 0 0 .725-1.112v-9.535h15.183v39.465l.011 1.718zm43.441-43.285H30.844V12.92h17.773z" transform="translate(-.04 -.04)" style="stroke:#fcfcfc;stroke-width:.6px;fill:none"/>
        <path data-name="Path 1643" d="M22.912 31.876a1.1 1.1 0 0 0 .219.063h.541a1.175 1.175 0 0 0 .5-.238l3.29-2.839 3 2.816a1.139 1.139 0 0 0 .457.261h.686a1.251 1.251 0 0 0 .131-.038 1.174 1.174 0 0 0 .707-1.084v-17.33h-6.48v.008h-3.734v17.314a1.184 1.184 0 0 0 .683 1.067m1.675-16.021H30.1v12.253l-1.8-1.685a1.189 1.189 0 0 0-1.579-.036l-2.133 1.85z" transform="translate(-1.773 -1.076)" style="fill:#00bab4"/>
        <path data-name="Path 1644" d="M24.168 15.067h6.952v15.907l-2.271-2.188a1.467 1.467 0 0 0-1.992-.046l-2.69 2.4z" transform="translate(-2.078 -2.656)" style="fill:#f8f8f8"/>
    </g>
</svg>
