<svg xmlns="http://www.w3.org/2000/svg" width="40" height="40" viewBox="0 0 40 40">
    <path data-name="패스 973" d="M40 20A20 20 0 1 1 20 0a20 20 0 0 1 20 20" style="fill:#f4511e"/>
    <path data-name="패스 974" d="M26.87 18.66h-6.727v2.763h3.844a3.287 3.287 0 0 1-1.425 2.156 4.3 4.3 0 1 1-2.419-7.922 3.857 3.857 0 0 1 2.73 1.068l2.049-2.049a6.863 6.863 0 0 0-4.779-1.86 7.143 7.143 0 1 0 0 14.285 6.82 6.82 0 0 0 4.727-1.731A6.966 6.966 0 0 0 27 20.121a8.17 8.17 0 0 0-.13-1.461" transform="translate(0 .041)" style="fill:#fff;fill-rule:evenodd"/>
</svg>
