<svg xmlns="http://www.w3.org/2000/svg" width="110" height="80" viewBox="0 0 110 80">
    <path data-name="Rectangle 1611" style="fill:#f8f8f8" d="M0 0h110v80H0z"/>
    <path data-name="Rectangle 2030" transform="translate(31 16)" style="opacity:.5;fill:none" d="M0 0h48v48H0z"/>
    <g data-name="Group 1585">
        <path data-name="Line 1053" transform="translate(40 32)" style="stroke-width:1.2px;stroke:#00bab4;fill:none" d="M0 0h30"/>
        <g data-name="Rectangle 2032" transform="translate(41 42)" style="stroke-width:1.2px;stroke:#00bab4;fill:none">
            <rect width="6" height="6" rx="1" style="stroke:none"/>
            <rect x=".6" y=".6" width="4.8" height="4.8" rx=".4" style="fill:none"/>
        </g>
        <g data-name="Group 1580">
            <g data-name="Ellipse 448" transform="translate(62 40)" style="stroke:#000;stroke-width:1.2px;fill:none">
                <circle cx="8.5" cy="8.5" r="8.5" style="stroke:none"/>
                <circle cx="8.5" cy="8.5" r="7.9" style="fill:none"/>
            </g>
            <g data-name="Group 1584">
                <path data-name="Path 1655" d="m80.761 370.511 1.573 5.078 1.944-5.078 1.776 5.078 1.611-5.078" style="stroke-linejoin:round;stroke-linecap:round;stroke:#000;fill:none" transform="translate(-13.661 -324.111)"/>
                <path data-name="Line 1054" transform="translate(66.6 48.389)" style="stroke-linecap:round;stroke:#000;fill:none" d="M0 0h1"/>
                <path data-name="Line 1055" transform="translate(73.503 48.389)" style="stroke-linecap:round;stroke:#000;fill:none" d="M0 0h1"/>
            </g>
        </g>
        <path data-name="Path 1654" d="M27.4 27.4H2A1.4 1.4 0 0 1 .6 26V2A1.4 1.4 0 0 1 2 .6h34A1.4 1.4 0 0 1 37.4 2v14.112" transform="translate(36 25)" style="stroke:#000;stroke-width:1.2px;fill:none"/>
    </g>
</svg>
