<svg xmlns="http://www.w3.org/2000/svg" width="110" height="80" viewBox="0 0 110 80">
    <defs>
        <clipPath id="uixlf4oh2a">
            <path data-name="Rectangle 2027" style="fill:none" d="M0 0h38.03v48H0z"/>
        </clipPath>
    </defs>
    <path data-name="Rectangle 1611" style="fill:#f8f8f8" d="M0 0h110v80H0z"/>
    <path data-name="Rectangle 2029" transform="translate(31 16)" style="opacity:.5;fill:none" d="M0 0h48v48H0z"/>
    <g data-name="Group 1570" transform="translate(36 16)" style="clip-path:url(#uixlf4oh2a)">
        <path data-name="Path 1641" d="M37.068 8.4H27.38a5.876 5.876 0 0 0 1.89-2.95 3.938 3.938 0 0 0-.677-3.5A4.1 4.1 0 0 0 25.308.5a6.375 6.375 0 0 0-5.983 4.542l-.154.505-.157-.5A6.358 6.358 0 0 0 13.032.512 4.111 4.111 0 0 0 9.746 1.96a3.92 3.92 0 0 0-.677 3.5 5.947 5.947 0 0 0 1.89 2.95H1.278a.792.792 0 0 0-.778.8v4.694a.791.791 0 0 0 .778.8h1.144V47a.791.791 0 0 0 .778.8h31.946a.791.791 0 0 0 .778-.8V14.7h1.144a.791.791 0 0 0 .778-.8V9.2a.792.792 0 0 0-.778-.8m-16.23-2.947A4.874 4.874 0 0 1 25.311 2.1a2.617 2.617 0 0 1 2.086.872 2.318 2.318 0 0 1 .366 2.071A4.458 4.458 0 0 1 26.105 7.4a4.721 4.721 0 0 1-2.817 1h-3.215zm-3.764 9.237 4.2.006v5.17l-1.372-1.321a.888.888 0 0 0-1.2-.028l-1.627 1.451zm4.2-1.6h-4.2v-2.83h4.2zm-10.69-8.045a2.314 2.314 0 0 1 .366-2.071 2.615 2.615 0 0 1 2.084-.874 4.864 4.864 0 0 1 4.474 3.351l.753 2.95h-3.214A4.784 4.784 0 0 1 12.241 7.4a4.448 4.448 0 0 1-1.657-2.351m-8.528 8.042V10h13.22v3.1zm1.921 33.09V14.689h11.3v7.295a.932.932 0 0 0 .52.837.9.9 0 0 0 .168.049h.412a.891.891 0 0 0 .382-.187l2.509-2.226 2.292 2.208a.863.863 0 0 0 .348.205h.524a1 1 0 0 0 .1-.03.921.921 0 0 0 .539-.85V14.7h11.29v30.17l.008 1.313zM36.289 13.09H23.07V10h13.22z" transform="translate(-.158 -.148)" style="fill:#040405"/>
        <path data-name="Path 1642" d="M37.068 8.4H27.38a5.876 5.876 0 0 0 1.89-2.95 3.938 3.938 0 0 0-.677-3.5A4.1 4.1 0 0 0 25.308.5a6.375 6.375 0 0 0-5.983 4.542l-.154.505-.157-.5A6.358 6.358 0 0 0 13.032.512 4.111 4.111 0 0 0 9.746 1.96a3.92 3.92 0 0 0-.677 3.5 5.947 5.947 0 0 0 1.89 2.95H1.278a.792.792 0 0 0-.778.8v4.694a.791.791 0 0 0 .778.8h1.144V47a.791.791 0 0 0 .778.8h31.946a.791.791 0 0 0 .778-.8V14.7h1.144a.791.791 0 0 0 .778-.8V9.2a.792.792 0 0 0-.778-.8zm-16.23-2.947A4.874 4.874 0 0 1 25.311 2.1a2.617 2.617 0 0 1 2.086.872 2.318 2.318 0 0 1 .366 2.071A4.458 4.458 0 0 1 26.105 7.4a4.721 4.721 0 0 1-2.817 1h-3.215zm-3.764 9.237 4.2.006v5.17l-1.372-1.321a.888.888 0 0 0-1.2-.028l-1.627 1.451zm4.2-1.6h-4.2v-2.83h4.2zm-10.69-8.045a2.314 2.314 0 0 1 .366-2.071 2.615 2.615 0 0 1 2.084-.874 4.864 4.864 0 0 1 4.474 3.351l.753 2.95h-3.214A4.784 4.784 0 0 1 12.241 7.4a4.448 4.448 0 0 1-1.657-2.355zm-8.528 8.046V10h13.22v3.1zm1.921 33.09V14.689h11.3v7.295a.932.932 0 0 0 .52.837.9.9 0 0 0 .168.049h.412a.891.891 0 0 0 .382-.187l2.509-2.226 2.292 2.208a.863.863 0 0 0 .348.205h.524a1 1 0 0 0 .1-.03.921.921 0 0 0 .539-.85V14.7h11.29v30.17l.008 1.313zM36.289 13.09H23.07V10h13.22z" transform="translate(-.158 -.148)" style="stroke:#f8f8f8;stroke-width:.3px;fill:none"/>
        <path data-name="Path 1643" d="M22.737 27.545a.8.8 0 0 0 .163.048h.4a.864.864 0 0 0 .372-.182l2.447-2.17 2.235 2.153a.842.842 0 0 0 .34.2h.51a.911.911 0 0 0 .1-.029.9.9 0 0 0 .526-.829V13.487h-4.823v.006h-2.78v13.236a.907.907 0 0 0 .508.816M23.983 15.3h4.1v9.367l-1.339-1.288a.866.866 0 0 0-1.175-.027l-1.587 1.414z" transform="translate(-7.014 -3.999)" style="fill:#00bab4"/>
        <path data-name="Path 1644" d="M24.168 15.067h5.171v12.161l-1.689-1.673a1.07 1.07 0 0 0-1.482-.035l-2 1.836z" transform="translate(-7.737 -5.579)" style="fill:#f8f8f8"/>
    </g>
</svg>
