<svg xmlns="http://www.w3.org/2000/svg" width="56.033" height="13.005" viewBox="0 0 56.033 13.005">
    <defs>
        <clipPath id="azx2xkc46a">
            <path data-name="사각형 1911" style="fill:none" d="M0 0h55.054v12.778H0z"/>
        </clipPath>
    </defs>
    <g data-name="*kakao">
        <path data-name="패스 1454" d="m1.648 6.736 3.19 3.9.936-.725L3.071 6.67 5.4 3.743l-.949-.686zM1.213 0 0 .264v10.189h1.213z"/>
        <g data-name="그룹 1494">
            <g data-name="그룹 1493" style="clip-path:url(#azx2xkc46a)" transform="translate(.979 .227)">
                <path data-name="패스 1455" d="M6.308 8.037a1.88 1.88 0 0 1 .691-1.574 3.2 3.2 0 0 1 2.009-.541h1.314v-.435q0-1.579-1.389-1.579a3.838 3.838 0 0 0-.939.124 5.365 5.365 0 0 0-.9.311l-.336-.809a4.664 4.664 0 0 1 1.1-.442 4.512 4.512 0 0 1 1.151-.156q2.414 0 2.414 2.575v4.355h-.846l-.137-.746a4.082 4.082 0 0 1-1.089.634 3.048 3.048 0 0 1-1.1.224A1.788 1.788 0 0 1 6.31 8.037m2.14 1.02a2.072 2.072 0 0 0 .491-.062 4.022 4.022 0 0 0 .51-.162 2.735 2.735 0 0 0 .479-.243 2.781 2.781 0 0 0 .4-.3V6.693H9.132a2.237 2.237 0 0 0-1.325.311 1.146 1.146 0 0 0-.417.983.94.94 0 0 0 1.058 1.07"/>
                <path data-name="패스 1456" d="M14.817 9.866h-1.144V.249L14.817 0zm3.061-6.98.9.647L16.572 6.3l2.55 3.061-.883.684-3.011-3.687z"/>
                <path data-name="패스 1457" d="M19.981 8.037a1.88 1.88 0 0 1 .691-1.574 3.2 3.2 0 0 1 2.009-.541H24v-.435q0-1.58-1.394-1.58a3.837 3.837 0 0 0-.939.124 5.365 5.365 0 0 0-.9.311l-.336-.809a4.664 4.664 0 0 1 1.1-.442 4.512 4.512 0 0 1 1.151-.156q2.414 0 2.414 2.575v4.355h-.846l-.137-.746a4.081 4.081 0 0 1-1.089.634 3.048 3.048 0 0 1-1.1.224 1.788 1.788 0 0 1-1.941-1.941m2.14 1.02a2.073 2.073 0 0 0 .491-.062 4.021 4.021 0 0 0 .51-.162 2.736 2.736 0 0 0 .479-.243 2.782 2.782 0 0 0 .4-.3V6.693h-1.198a2.237 2.237 0 0 0-1.325.311 1.146 1.146 0 0 0-.417.983.94.94 0 0 0 1.058 1.07"/>
                <path data-name="패스 1458" d="M29.983 2.949a2.811 2.811 0 0 1 2.227.921 3.875 3.875 0 0 1 .809 2.637 3.8 3.8 0 0 1-.8 2.6 3.192 3.192 0 0 1-4.46 0 3.784 3.784 0 0 1-.809-2.6 3.855 3.855 0 0 1 .813-2.641 2.815 2.815 0 0 1 2.221-.921m0 .921a1.586 1.586 0 0 0-1.375.672 3.37 3.37 0 0 0-.479 1.966 3.253 3.253 0 0 0 .479 1.935 1.787 1.787 0 0 0 2.762 0 3.255 3.255 0 0 0 .479-1.935 3.371 3.371 0 0 0-.479-1.966 1.6 1.6 0 0 0-1.388-.672"/>
                <path data-name="패스 1459" d="M36.528 9.925v2.551h-1.817V3.072h1.282l.224.6a2.579 2.579 0 0 1 1.916-.8c1.779 0 2.625 1.331 2.613 3.484 0 2.252-1.307 3.7-3.173 3.7a3.979 3.979 0 0 1-1.045-.125m0-5.338v4.069a5.209 5.209 0 0 0 .585.037c1.294 0 1.792-.908 1.792-2.339 0-1.257-.336-2.016-1.369-2.016a2.361 2.361 0 0 0-1.008.249"/>
                <path data-name="패스 1460" d="M44.702 5.724h1.033V5.5c0-.746-.423-1.095-1.157-1.095a4.552 4.552 0 0 0-1.866.448l-.5-1.219a4.754 4.754 0 0 1 2.526-.759 2.4 2.4 0 0 1 2.688 2.675v4.318h-1.281l-.187-.572a3.434 3.434 0 0 1-2.016.759 1.923 1.923 0 0 1-2.078-2.14c0-1.431 1-2.19 2.837-2.19m1.034 2.399V6.879h-.834c-.933 0-1.406.336-1.406 1.008 0 .51.261.759.8.759a2.5 2.5 0 0 0 1.44-.522"/>
                <path data-name="패스 1461" d="M52.926 9.169a6.8 6.8 0 0 1-2.5 3.608l-1.12-1.033a6.287 6.287 0 0 0 1.506-1.842L48.398 3.32l1.8-.485 1.543 5.338 1.53-5.363 1.779.5z"/>
            </g>
        </g>
    </g>
</svg>
