<svg xmlns="http://www.w3.org/2000/svg" width="87.92" height="12.735" viewBox="0 0 87.92 12.735">
    <path d="M358.194 22.643a4.494 4.494 0 0 0-3.26 1.375 4.71 4.71 0 0 0-1.35 3.387 4.844 4.844 0 0 0 .356 1.783 4.734 4.734 0 0 0 .968 1.528 4.473 4.473 0 0 0 1.477 1.044 4.294 4.294 0 0 0 1.732.357 4.365 4.365 0 0 0 1.4-.229 2.491 2.491 0 0 0 1.273-.866v.917h1.986v-9.093h-2.012v.917a2.435 2.435 0 0 0-1.248-.917 4.636 4.636 0 0 0-1.324-.2zm-10.392.025a3.9 3.9 0 0 0-1.325.2 2.435 2.435 0 0 0-1.248.917v-.917h-2.012v12.51h1.983v-4.33a2.655 2.655 0 0 0 1.273.866 4.245 4.245 0 0 0 1.4.229 4.3 4.3 0 0 0 1.732-.356 4.469 4.469 0 0 0 1.477-1.045 4.863 4.863 0 0 0-.026-6.7 4.454 4.454 0 0 0-3.26-1.375zm16.2.2 3.871 8.532-1.681 3.948h2.088l5.272-12.48h-2.114l-2.572 6.418-2.751-6.418zm-5.731 1.532a2.556 2.556 0 0 1 1.885.764 3.115 3.115 0 0 1 .738 2.165 3.167 3.167 0 0 1-.713 2.241 2.5 2.5 0 0 1-1.936.764 2.552 2.552 0 0 1-1.859-.789 2.986 2.986 0 0 1-.79-2.114 3.151 3.151 0 0 1 .79-2.216 2.645 2.645 0 0 1 1.885-.815zm-10.544.025a2.5 2.5 0 0 1 1.885.815 3.109 3.109 0 0 1 .79 2.216 2.984 2.984 0 0 1-.79 2.114 2.705 2.705 0 0 1-3.8.025 3.336 3.336 0 0 1-.713-2.241 3.073 3.073 0 0 1 .739-2.165 2.479 2.479 0 0 1 1.889-.763z" transform="translate(-285.632 -22.643)" style="fill:#0c4da2"/>
    <path d="M119.921 27.443c-1.375 0-2.5.459-2.7 1.707a2.913 2.913 0 0 0 .025 1.044c.306 1.6 3.056 2.037 3.438 3.03a1.067 1.067 0 0 1 .025.56c-.076.255-.229.509-.764.509a.678.678 0 0 1-.764-.687v-.739h-2.063v.586c0 1.732 1.35 2.242 2.8 2.242 1.4 0 2.547-.484 2.726-1.757a3.928 3.928 0 0 0 0-1.273c-.331-1.6-3.26-2.088-3.464-3.005a1.086 1.086 0 0 1 0-.407.632.632 0 0 1 .713-.509.649.649 0 0 1 .713.687v.484h1.91v-.535c0-1.681-1.5-1.936-2.6-1.936zm48.341.051c-1.376 0-2.522.458-2.7 1.91 0 .127-.025.382-.025.509v3.234a4.166 4.166 0 0 0 .025.509c.127 1.4 1.35 1.91 2.7 1.91 1.375 0 2.6-.509 2.725-1.91a4.112 4.112 0 0 0 .025-.509v-2.062h-2.725v1.121h.789v1.12a1.047 1.047 0 0 1-.025.281.737.737 0 0 1-.789.56c-.56 0-.764-.331-.764-.586a.945.945 0 0 1-.026-.28v-3.515a1.553 1.553 0 0 1 .026-.357.725.725 0 0 1 .764-.56.684.684 0 0 1 .764.56 1.9 1.9 0 0 1 .025.305v.433h1.936v-.255s0-.28-.025-.509c-.127-1.452-1.325-1.91-2.7-1.91zm-23.253.051c-1.35 0-2.471.433-2.674 1.681a2.31 2.31 0 0 0 .025 1.019c.28 1.553 2.98 1.986 3.362 2.98a1.058 1.058 0 0 1 .025.56c-.051.255-.229.509-.739.509a.678.678 0 0 1-.764-.687v-.739h-2.038v.586c0 1.707 1.35 2.216 2.776 2.216 1.375 0 2.521-.459 2.7-1.732a3.714 3.714 0 0 0 0-1.248c-.331-1.6-3.209-2.063-3.412-2.954a.733.733 0 0 1 0-.407.62.62 0 0 1 .687-.509.649.649 0 0 1 .713.687v.484h1.91v-.535c0-1.656-1.5-1.91-2.572-1.91zm-19.637.178-1.426 7.692h2.063l1.069-7h.026l1.044 7h2.063l-1.426-7.692zm6.545 0-.178 7.692h1.936l.051-6.927h.051l1.273 6.927h1.961l1.273-6.927h.051l.051 6.927h1.936l-.178-7.692h-3.134l-.967 5.883h-.025l-.943-5.883zm17.574 0v5.527c0 .153.025.433.025.509.127 1.451 1.248 1.91 2.674 1.91s2.573-.484 2.7-1.91c0-.077.025-.357.025-.509v-5.526h-1.961v5.654a1.144 1.144 0 0 1-.026.305.673.673 0 0 1-.738.561.653.653 0 0 1-.714-.509 1.243 1.243 0 0 1-.025-.306v-5.7zm7.565 0v7.615h1.885l-.1-6.265h.051l1.885 6.265h2.751v-7.614h-1.91l.1 6.036h-.025l-1.783-6.036z" transform="translate(-117.119 -26.221)" style="fill:#0c4da2"/>
</svg>
