<svg xmlns="http://www.w3.org/2000/svg" width="51.2" height="11.587" viewBox="0 0 51.2 11.587">
    <defs>
        <clipPath id="dxcnrongna">
            <path data-name="사각형 1912" style="fill:none" d="M0 0h51.2v11.587H0z"/>
        </clipPath>
    </defs>
    <g data-name="그룹 1495" style="clip-path:url(#dxcnrongna)">
        <path data-name="패스 1462" d="M0 1.653A1.223 1.223 0 0 1 1.232.421h3.345c2.673 0 4.289 1.584 4.289 3.873v.032c0 2.593-2.017 3.937-4.529 3.937H2.465v2.321a1.223 1.223 0 0 1-1.233 1.233A1.223 1.223 0 0 1 0 10.584zM4.417 6.07a1.735 1.735 0 0 0 1.953-1.7v-.028c0-1.1-.768-1.7-2-1.7h-1.9V6.07z" transform="translate(0 -.325)" style="fill:#fff"/>
        <path data-name="패스 1463" d="m36.655 9.865 3.9-8.819A1.523 1.523 0 0 1 42 .07h.144a1.5 1.5 0 0 1 1.424.976l3.9 8.819a1.2 1.2 0 0 1 .128.5 1.168 1.168 0 0 1-1.168 1.184 1.256 1.256 0 0 1-1.185-.848L44.5 8.936h-4.932l-.784 1.841a1.211 1.211 0 0 1-1.136.768 1.134 1.134 0 0 1-1.136-1.153 1.306 1.306 0 0 1 .144-.528m6.93-3.105-1.552-3.7L40.48 6.76z" transform="translate(-28.182 -.054)" style="fill:#fff"/>
        <path data-name="패스 1464" d="M83.287 7.345 79.67 2.432a1.46 1.46 0 0 1-.3-.88A1.2 1.2 0 0 1 80.6.367a1.419 1.419 0 0 1 1.216.752l2.719 3.921L87.3 1.087a1.413 1.413 0 0 1 1.188-.736 1.142 1.142 0 0 1 1.2 1.2 1.53 1.53 0 0 1-.32.864L85.752 7.3v3.233a1.232 1.232 0 1 1-2.464 0z" transform="translate(-61.26 -.271)" style="fill:#fff"/>
        <path data-name="패스 1465" d="M124.944 5.826v-.033A5.694 5.694 0 0 1 130.786 0a5.934 5.934 0 0 1 3.745 1.136 1.233 1.233 0 0 1 .48.976 1.2 1.2 0 0 1-1.216 1.2 1.3 1.3 0 0 1-.736-.24 3.684 3.684 0 0 0-2.289-.8 3.32 3.32 0 0 0-3.249 3.489v.032a3.327 3.327 0 0 0 3.249 3.521 3.6 3.6 0 0 0 2.433-.88 1.141 1.141 0 1 1 1.472 1.744 5.9 5.9 0 0 1-9.731-4.353" transform="translate(-96.44)" style="fill:#fff"/>
        <path data-name="패스 1466" d="M172.239 5.826v-.033a5.956 5.956 0 0 1 11.907-.032v.032a5.956 5.956 0 0 1-11.907.032m9.33 0v-.032a3.4 3.4 0 0 0-3.393-3.521 3.35 3.35 0 0 0-3.361 3.489v.032a3.4 3.4 0 0 0 3.393 3.521 3.35 3.35 0 0 0 3.361-3.489" transform="translate(-132.946)" style="fill:#fff"/>
    </g>
</svg>
