<svg xmlns="http://www.w3.org/2000/svg" width="38.627" height="15.182" viewBox="0 0 38.627 15.182">
    <defs>
        <clipPath id="01n943jiza">
            <path data-name="사각형 1914" style="fill:none" d="M0 0h38.627v15.182H0z"/>
        </clipPath>
    </defs>
    <g data-name="그룹 1496" style="clip-path:url(#01n943jiza)">
        <path data-name="패스 1467" d="M126 21h3.1a3.909 3.909 0 0 1 1.273.187 2.473 2.473 0 0 1 .895.517 2.078 2.078 0 0 1 .528.788 2.753 2.753 0 0 1 .174.987v.253a2.637 2.637 0 0 1-.186.993 2.326 2.326 0 0 1-.546.812 2.6 2.6 0 0 1-.894.553 3.457 3.457 0 0 1-1.242.2h-1.908v3.381H126zm1.191 1.035v3.225h1.709q1.877 0 1.877-1.552v-.217a1.315 1.315 0 0 0-.451-1.1 2.054 2.054 0 0 0-1.294-.355z" transform="translate(-106.478 -17.747)" style="fill:#333"/>
        <path data-name="패스 1468" d="M172.434 40.537a2.372 2.372 0 0 1-1.582-.493 1.685 1.685 0 0 1-.584-1.36v-.324a1.794 1.794 0 0 1 .565-1.372 2.622 2.622 0 0 1 1.829-.529h1.673v-.385a1.336 1.336 0 0 0-.319-.981 1.43 1.43 0 0 0-1.041-.319 2.57 2.57 0 0 0-1 .18 5.573 5.573 0 0 0-.884.481l-.578-.866a5.565 5.565 0 0 1 1.083-.584 3.661 3.661 0 0 1 1.4-.247 3.485 3.485 0 0 1 1.011.138 2.269 2.269 0 0 1 .788.409 1.9 1.9 0 0 1 .517.662 2.032 2.032 0 0 1 .187.885v4.609h-1.119v-.794h-.012a1.258 1.258 0 0 1-.259.331 1.867 1.867 0 0 1-.355.259 2.459 2.459 0 0 1-.571.222 3.03 3.03 0 0 1-.74.078m1.9-3.092h-1.648a1.458 1.458 0 0 0-.981.265.936.936 0 0 0-.295.734v.169a.768.768 0 0 0 .337.7 1.459 1.459 0 0 0 .806.217 2.467 2.467 0 0 0 .752-.1 1.885 1.885 0 0 0 .584-.307 1.044 1.044 0 0 0 .343-.415 1.538 1.538 0 0 0 .1-.608z" transform="translate(-143.89 -28.512)" style="fill:#333"/>
        <path data-name="패스 1469" d="m213.557 39.773 1.733-5.258h1.227l-3.417 9.3-1.059-.373.854-2.25-2.395-6.677h1.263l1.745 5.258z" transform="translate(-177.89 -29.168)" style="fill:#333"/>
        <path data-name="사각형 1913" transform="translate(0 .261)" style="fill:#00c73c" d="M0 0h15.222v14.588H0z"/>
        <path data-name="패스 1470" d="m29.5 33.519-2.449-3.6v3.6H24.5v-6.95h2.589l2.449 3.6v-3.6h2.552v6.95z" transform="translate(-20.704 -22.453)" style="fill:#fff"/>
    </g>
</svg>
