<svg xmlns="http://www.w3.org/2000/svg" width="21.41" height="21.455" viewBox="0 0 21.41 21.455">
    <path data-name="Path 1529" d="M86.555 17.645V23.1a.668.668 0 0 1-1.337 0v-5.455a.668.668 0 0 1 1.337 0zm6.394-.668a.668.668 0 0 1 .668.668V23.1a.668.668 0 1 1-1.337 0v-5.455a.668.668 0 0 1 .668-.668zm3.85 8.711V12.2H82.037v13.488a2.568 2.568 0 0 0 2.563 2.566h9.629a2.568 2.568 0 0 0 2.571-2.566zM86.91 9.472h5.015v1.394H86.91zm12.531 1.394h-6.18V8.8a.668.668 0 0 0-.668-.668h-6.351a.668.668 0 0 0-.668.668v2.062h-6.18a.668.668 0 1 0 0 1.337H80.7v13.489a3.907 3.907 0 0 0 3.9 3.9h9.63a3.907 3.907 0 0 0 3.9-3.9V12.2h1.307a.668.668 0 1 0 0-1.337z" style="fill-rule:evenodd" transform="translate(-78.713 -8.135)"/>
    <path data-name="Path 1530" d="M114.683 51.552V57a.668.668 0 0 1-1.337 0v-5.448a.668.668 0 0 1 1.337 0z" transform="translate(-103.31 -42.042)" style="fill-rule:evenodd"/>
</svg>
