<svg xmlns="http://www.w3.org/2000/svg" width="70" height="70" viewBox="0 0 70 70">
    <g data-name="상담신청 icon">
        <path data-name="Rectangle 2078" style="opacity:.5;fill:none" d="M0 0h70v70H0z"/>
        <g data-name="Group 1626">
            <g data-name="Group 1639">
                <path data-name="Path 1587" d="M42.579 57.229H1.741A1.24 1.24 0 0 1 .5 55.988V1.741A1.239 1.239 0 0 1 1.741.5H34l.044 9.773 9.773.022v45.693a1.242 1.242 0 0 1-1.238 1.241z" transform="translate(11.5 7.026)" style="stroke-linejoin:round;stroke-linecap:round;stroke-width:2px;stroke:#000;fill:none"/>
                <path data-name="Line 1025" transform="translate(45.64 7.638)" style="stroke-linejoin:round;stroke-linecap:round;stroke-width:2px;stroke:#000;fill:none" d="m0 0 9.596 9.607"/>
            </g>
            <path data-name="Line 1027" transform="translate(22.89 27.821)" style="stroke-linejoin:round;stroke-linecap:round;stroke-width:2px;stroke:#000;fill:none" d="M0 0h21.539"/>
            <path data-name="Line 1029" transform="translate(22.89 38.893)" style="stroke-linejoin:round;stroke-linecap:round;stroke-width:2px;stroke:#000;fill:none" d="M0 0h12.386"/>
            <path data-name="Line 1035" transform="translate(23.263 50.938)" style="stroke-linejoin:round;stroke-linecap:round;stroke-width:2px;stroke:#000;fill:none" d="M0 0h9.01"/>
            <g data-name="Group 1627">
                <path data-name="Path 1589" d="m33.049 4.646 2.97 3.563a1.579 1.579 0 0 1-.282 2.037l-16.6 16.928-6.242 1.173 1.689-6.635 16.6-16.926a1.25 1.25 0 0 1 1.865-.14z" transform="translate(27.807 23.532)" style="stroke:#00bab4;fill:#fff;stroke-linejoin:round;stroke-linecap:round;stroke-width:2px"/>
                <path data-name="Path 1623" d="m.15-.151 4.344 4.684" transform="translate(54.775 32.373)" style="stroke:#00bab4;stroke-linecap:round;stroke-width:2px;fill:none"/>
            </g>
        </g>
    </g>
</svg>
