<svg xmlns="http://www.w3.org/2000/svg" width="14.067" height="13.079" viewBox="0 0 14.067 13.079">
    <g data-name="*ic_left_end">
        <path data-name="Path 997" d="M6.761 0c.038-.017.145.04.192.117A.333.333 0 0 1 6.9.525L.634 6.192l6.272 5.855a.333.333 0 0 1 .044.407.212.212 0 0 1-.335.053L.093 6.418a.33.33 0 0 1 0-.463L6.619.06A.212.212 0 0 1 6.761 0z" transform="translate(6.795 .261)" style="stroke:#000;stroke-width:.5px"/>
        <path data-name="Path 998" d="M6.761 0c.038-.017.145.04.192.117A.333.333 0 0 1 6.9.525L.634 6.192l6.272 5.855a.333.333 0 0 1 .044.407.212.212 0 0 1-.335.053L.093 6.418a.33.33 0 0 1 0-.463L6.619.06A.212.212 0 0 1 6.761 0z" transform="translate(.25 .261)" style="stroke:#000;stroke-width:.5px"/>
    </g>
</svg>
