<svg xmlns="http://www.w3.org/2000/svg" width="65" height="65" viewBox="0 0 65 65">
    <path data-name="Rectangle 2073" style="fill:none;opacity:.5" d="M0 0h65v65H0z"/>
    <g data-name="Group 1750">
        <path data-name="Path 1641" d="M49.664 10.84H36.64a7.668 7.668 0 0 0 2.541-3.86 5.041 5.041 0 0 0-.91-4.582A5.581 5.581 0 0 0 33.854.5a8.54 8.54 0 0 0-8.044 5.946l-.207.661-.211-.65A8.518 8.518 0 0 0 17.349.516a5.6 5.6 0 0 0-4.418 1.894 5.019 5.019 0 0 0-.91 4.582 7.759 7.759 0 0 0 2.542 3.859H1.546A1.05 1.05 0 0 0 .5 11.9v6.14a1.049 1.049 0 0 0 1.046 1.046h1.538v42.235a1.049 1.049 0 0 0 1.046 1.047h42.95a1.049 1.049 0 0 0 1.045-1.046V19.071h1.538a1.049 1.049 0 0 0 1.046-1.046v-6.139a1.05 1.05 0 0 0-1.046-1.046m-21.82-3.861A6.533 6.533 0 0 1 33.858 2.6a3.566 3.566 0 0 1 2.8 1.141 2.967 2.967 0 0 1 .491 2.709 5.836 5.836 0 0 1-2.228 3.075 6.459 6.459 0 0 1-3.787 1.308h-4.319zm-5.059 12.083 5.651.007v6.763L26.59 24.1a1.218 1.218 0 0 0-1.62-.037l-2.187 1.9zm5.651-2.093h-5.651v-3.7h5.651zM14.057 6.446a2.961 2.961 0 0 1 .491-2.709 3.564 3.564 0 0 1 2.8-1.14 6.52 6.52 0 0 1 6.015 4.383l1.012 3.859h-4.317a6.544 6.544 0 0 1-3.773-1.318 5.823 5.823 0 0 1-2.228-3.075M2.593 16.97v-4.05h17.773v4.05zm2.582 43.284V19.06h15.191v9.54a1.114 1.114 0 0 0 .925 1.159h.554a1.212 1.212 0 0 0 .513-.245l3.374-2.914 3.081 2.888a1.168 1.168 0 0 0 .468.269h.7a1.378 1.378 0 0 0 .133-.039 1.2 1.2 0 0 0 .725-1.112v-9.535h15.183v39.465l.011 1.718zm43.441-43.285H30.844V12.92h17.773z" transform="translate(6.612 .96)" style="fill:#040405"/>
        <path data-name="Path 1643" d="M22.929 31.83a1.149 1.149 0 0 0 .225.062h.555a1.219 1.219 0 0 0 .512-.238l3.372-2.832 3.08 2.809a1.176 1.176 0 0 0 .469.261h.7a1.309 1.309 0 0 0 .134-.038 1.17 1.17 0 0 0 .724-1.081V13.487h-6.643v.008h-3.828v17.27a1.179 1.179 0 0 0 .7 1.065m1.717-15.981H30.3v12.222l-1.85-1.681a1.244 1.244 0 0 0-1.619-.036L24.645 28.2z" transform="translate(4.752 .313)" style="fill:#00bab4"/>
        <path data-name="Path 1644" d="M24.168 15.067h7.127v15.8L28.967 28.7a1.539 1.539 0 0 0-2.042-.045l-2.758 2.386z" transform="translate(4.488 -1.267)" style="fill:#fff"/>
    </g>
</svg>
