<svg xmlns="http://www.w3.org/2000/svg" width="57" height="57" viewBox="0 0 57 57">
    <g transform="translate(-.6 -.6)">
        <circle data-name="Ellipse 20" cx="28" cy="28" r="28" transform="translate(1.1 1.1)" style="fill:none;stroke:#333;stroke-miterlimit:10"/>
        <g data-name="Group 95">
            <path data-name="Path 112" d="M26.5 21.375a5.125 5.125 0 1 0 5.125 5.125 5.148 5.148 0 0 0-5.125-5.125zm0 8.125a3 3 0 1 1 3-3 2.962 2.962 0 0 1-3 3zm5.375-9.5a1.188 1.188 0 1 0 1.188 1.188A1.187 1.187 0 0 0 31.875 20zm4.563 2.375c-.187-3.625-2.188-5.625-5.813-5.813-1.062-.062-1.437-.062-4.125-.062s-3.062 0-4.125.063c-3.625.188-5.625 2.188-5.812 5.813-.063 1.062-.063 1.437-.063 4.124s0 3.063.063 4.125c.187 3.625 2.188 5.625 5.813 5.813 1.063.063 1.375.063 4.125.063 2.688 0 3.063 0 4.125-.062 3.625-.187 5.625-2.187 5.813-5.812.063-1.063.063-1.375.063-4.125-.002-2.689-.002-3.064-.064-4.127zm-1.813 8.188c-.125 2.687-1.375 4-4.125 4.125-1.062.063-1.375.063-4.062.063s-3 0-4.062-.062c-2.687-.125-4-1.437-4.125-4.125-.062-1.062-.062-1.375-.062-4.062s0-3 .063-4.062c.125-2.688 1.375-4 4.125-4.125 1.063-.062 1.375-.062 4.063-.062s3 0 4.063.063c2.688.125 4 1.438 4.125 4.125.063 1.063.063 1.375.063 4.063s-.003 2.996-.066 4.059z" transform="translate(3.163 3.162)" style="fill:#fff;fill-rule:evenodd"/>
        </g>
    </g>
</svg>
