<svg id="_ic_share" data-name="*ic_share" xmlns="http://www.w3.org/2000/svg" width="30" height="33.333" viewBox="0 0 30 33.333">
  <defs>
    <style>
      .cls-1 {
        fill: #fff;
      }
    </style>
  </defs>
  <path id="Path_190" data-name="Path 190" class="cls-1" d="M223.246,106.4a5.485,5.485,0,0,0-5.556,5.376,5.18,5.18,0,0,0,.3,1.73l-9.514,5.981a5.618,5.618,0,0,0-4.115-1.8,5.379,5.379,0,1,0,0,10.753,5.616,5.616,0,0,0,4.132-1.8l9.5,5.981a5.1,5.1,0,0,0-.3,1.73,5.559,5.559,0,1,0,5.556-5.376,5.618,5.618,0,0,0-4.115,1.8l-9.514-5.981a5.192,5.192,0,0,0,.3-1.73,5.1,5.1,0,0,0-.3-1.73l9.5-5.981a5.616,5.616,0,0,0,4.132,1.8,5.379,5.379,0,1,0,0-10.753Zm0,2.15a3.228,3.228,0,1,1-3.334,3.226A3.265,3.265,0,0,1,223.246,108.55Zm-18.889,11.291a3.228,3.228,0,1,1-3.334,3.226A3.265,3.265,0,0,1,204.357,119.841Zm18.889,11.291a3.228,3.228,0,1,1-3.334,3.226A3.265,3.265,0,0,1,223.246,131.131Z" transform="translate(-198.802 -106.4)"/>
</svg>
