<svg xmlns="http://www.w3.org/2000/svg" width="13.659" height="14.233" viewBox="0 0 13.659 14.233">
    <g data-name="*ic_refresh">
        <path data-name="Path 1110" d="M155.119 74.312a6.629 6.629 0 1 0 13.258 0 .762.762 0 1 0-1.524 0 5.105 5.105 0 1 1-5.105-5.105 5.041 5.041 0 0 1 3.067 1.029l-1.41.114a.763.763 0 0 0 .057 1.524h.057l2.934-.229a.831.831 0 0 0 .572-.286.882.882 0 0 0 .21-.61l-.229-2.934a.764.764 0 1 0-1.524.114l.076.971a6.557 6.557 0 0 0-3.81-1.2 6.63 6.63 0 0 0-6.629 6.61z" transform="translate(-154.919 -66.908)" style="stroke:#fff;stroke-width:.4px"/>
    </g>
</svg>
