<svg xmlns="http://www.w3.org/2000/svg" width="57" height="57" viewBox="0 0 57 57">
    <g data-name="Group 93">
        <path data-name="Path 110" d="M31 16v3.4c0 .1 0 .2-.2.2h-2a1.268 1.268 0 0 0-.6.1c-.4.1-.5.4-.5.8v2.2c0 .1 0 .2.2.2h2.9c.2 0 .2 0 .2.2l-.3 2.4c0 .3-.1.6-.1.9 0 .1-.1.1-.2.1h-2.7c-.1 0-.2 0-.2.2v9.4h-4v-9.5c0-.1 0-.2-.2-.2h-2.4c-.1 0-.2 0-.2-.1V23c0-.1 0-.2.2-.2h2.3c.1 0 .2 0 .2-.2v-2.1a13.552 13.552 0 0 1 .2-2 2.892 2.892 0 0 1 2.2-2.3c.3-.1.6-.1.9-.2.1 0 .2 0 .2-.1 1.6.1 2.9.1 4.1.1z" transform="translate(2.266 2.049)" style="fill:#fff"/>
    </g>
    <circle data-name="Ellipse 21" cx="28" cy="28" r="28" transform="translate(.5 .5)" style="fill:none;stroke:#333;stroke-miterlimit:10"/>
</svg>
