<svg xmlns="http://www.w3.org/2000/svg" width="354" height="198" viewBox="0 0 354 198">
  <defs>
    <style>
      .cls-1 {
        fill: #fff;
      }

      .cls-2, .cls-3 {
        stroke: none;
      }

      .cls-3 {
        fill: #000;
      }
    </style>
  </defs>
  <g id="Group_1154" data-name="Group 1154" transform="translate(0 -0.356)">
    <g id="Subtraction_15" data-name="Subtraction 15" class="cls-1" transform="translate(0 0.356)">
      <path class="cls-2" d="M 353.5 197.4981842041016 L 0.5 197.4981842041016 L 0.5 0.5 L 353.5 0.5 L 353.5 79.07534027099609 C 342.474365234375 79.32487487792969 333.5875854492188 87.75221252441406 333.5875854492188 98.07390594482422 C 333.5875854492188 108.3975372314453 342.4743347167969 116.8249435424805 353.5 117.0726547241211 L 353.5 197.4981842041016 Z"/>
      <path class="cls-3" d="M 353 196.9981842041016 L 353 117.5562515258789 C 341.9310913085938 117.0681533813477 333.0875854492188 108.5161819458008 333.0875854492188 98.07390594482422 C 333.0875854492188 87.63357543945312 341.9311828613281 79.08170318603516 353 78.59181213378906 L 353 1 L 1 1 L 1 196.9981842041016 L 353 196.9981842041016 M 354 198 L 354 197.9981842041016 L 0 197.9981842041016 L 0 0 L 354 0 L 354 79.56963348388672 C 343.0177612304688 79.57150268554688 334.0875854492188 87.87163543701172 334.0875854492188 98.07390594482422 C 334.0875854492188 108.2772750854492 343.0203247070312 116.5782699584961 354 116.5782699584961 L 354 198 Z"/>
    </g>
  </g>
</svg>
