<svg xmlns="http://www.w3.org/2000/svg" width="238" height="156" viewBox="0 0 238 156">
    <defs>
        <clipPath id="m6824j2b8b">
            <path data-name="사각형 2033" style="fill:none" d="M0 0h45.191v8.4H0z"/>
        </clipPath>
        <clipPath id="gb8viid0lc">
            <path data-name="사각형 2034" style="fill:none" d="M0 0h149.055v24.548H0z"/>
        </clipPath>
        <filter id="gph2x7ixsa" x="0" y="14" width="238" height="142" filterUnits="userSpaceOnUse">
            <feOffset dy="3"/>
            <feGaussianBlur stdDeviation="3" result="blur"/>
            <feFlood flood-opacity=".161"/>
            <feComposite operator="in" in2="blur"/>
            <feComposite in="SourceGraphic"/>
        </filter>
    </defs>
    <g data-name="coupon img">
        <g style="filter:url(#gph2x7ixsa)">
            <g data-name="빼기 15" style="fill:#fff" transform="translate(.003 .004)">
                <path d="M219.5 123.499H.5V.5h219v48.84c-6.869.249-12.375 5.573-12.375 12.08 0 6.509 5.506 11.832 12.375 12.08v49.999z" style="stroke:none" transform="translate(9 20)"/>
                <path d="M219 122.999V73.974c-6.91-.483-12.375-5.93-12.375-12.554 0-6.624 5.465-12.07 12.375-12.554V1H1v121.999h218m1 1.001v-.001H0V0h220v49.832c-6.825 0-12.375 5.199-12.375 11.588 0 6.39 5.551 11.589 12.375 11.589V124z" style="fill:#000;stroke:none" transform="translate(9 20)"/>
            </g>
        </g>
        <g data-name="그룹 1301" transform="translate(176.957 .134)">
            <circle data-name="타원 447" cx="20.5" cy="20.5" r="20.5" transform="translate(.043 -.134)" style="fill:#00bab4"/>
            <g data-name="그룹 1223">
                <path data-name="선 473" transform="translate(14.044 26.867)" style="stroke:#fff;stroke-miterlimit:10;fill:none" d="M0 0h14"/>
                <path data-name="선 472" transform="translate(20.657 9.791)" style="stroke:#fff;stroke-miterlimit:10;fill:none" d="M0 13.811V0"/>
                <path data-name="패스 1055" d="m2.375 10.688 6.009 5.007 6.009-5.007" transform="translate(12.273 7.907)" style="stroke:#fff;stroke-miterlimit:10;fill:none"/>
            </g>
        </g>
        <path data-name="사각형 1693" transform="translate(35 62)" style="fill:#eee" d="M0 0h168v1H0z"/>
        <g data-name="그룹 1578">
            <path data-name="패스 1646" d="m104.856 37.8-1.44 6.912-2.076-6.912h-.9l-2.076 6.936-1.427-6.936H96l1.813 8.4h.935l2.137-7.116 2.124 7.116h.935l1.812-8.4z"/>
            <path data-name="사각형 2031" d="M107.796 37.799h.924V46.2h-.924z"/>
            <path data-name="패스 1647" d="M110.687 37.8v.816h5.292l-5.34 6.924v.66h6.649v-.816h-5.46l5.363-6.923V37.8z"/>
            <path data-name="패스 1648" d="m127.584 37.8-1.44 6.912-2.076-6.912h-.9l-2.076 6.936-1.428-6.936h-.936l1.813 8.4h.935l2.136-7.117 2.124 7.117h.936l1.812-8.4z"/>
            <path data-name="사각형 2032" d="M130.523 37.799h.925V46.2h-.925z"/>
            <g data-name="그룹 1577">
                <g data-name="그룹 1576" style="clip-path:url(#m6824j2b8b)" transform="translate(96 37.8)">
                    <path data-name="패스 1649" d="M38 8.4V0h2.772a4.837 4.837 0 0 1 1.768.313 4.227 4.227 0 0 1 1.4.876 4 4 0 0 1 .925 1.332 4.228 4.228 0 0 1 .329 1.68 4.278 4.278 0 0 1-.324 1.68 3.9 3.9 0 0 1-.918 1.331 4.2 4.2 0 0 1-1.4.877 4.884 4.884 0 0 1-1.77.312zm.924-.84h1.9a3.587 3.587 0 0 0 1.356-.252 3.339 3.339 0 0 0 1.092-.708A3.223 3.223 0 0 0 44 5.533a3.4 3.4 0 0 0 .256-1.333A3.394 3.394 0 0 0 44 2.869a3.213 3.213 0 0 0-.728-1.069 3.339 3.339 0 0 0-1.092-.708 3.587 3.587 0 0 0-1.356-.251h-1.9z"/>
                </g>
            </g>
        </g>
        <g data-name="그룹 1580">
            <g data-name="그룹 1579" style="clip-path:url(#gb8viid0lc)" transform="translate(41 85.226)">
                <path data-name="패스 1650" d="M12.648 24.514a13.116 13.116 0 0 1-4.964-.935 12.365 12.365 0 0 1-4.029-2.6 12.091 12.091 0 0 1-2.687-3.894A11.939 11.939 0 0 1 0 12.274a11.9 11.9 0 0 1 3.671-8.738A12.662 12.662 0 0 1 7.7.935 12.988 12.988 0 0 1 12.648 0a13.36 13.36 0 0 1 3.808.544 13.876 13.876 0 0 1 3.417 1.531 10.728 10.728 0 0 1 2.7 2.379l-3.332 3.3a8.709 8.709 0 0 0-2.975-2.414 8.19 8.19 0 0 0-3.621-.816 7.532 7.532 0 0 0-2.992.6 7.421 7.421 0 0 0-2.411 1.625A7.511 7.511 0 0 0 5.644 9.2a8.019 8.019 0 0 0-.578 3.076 7.931 7.931 0 0 0 .578 3.043 7.23 7.23 0 0 0 1.632 2.448 7.543 7.543 0 0 0 2.465 1.613 8.024 8.024 0 0 0 3.077.578 7.992 7.992 0 0 0 3.5-.782 8.821 8.821 0 0 0 2.89-2.244l3.23 3.2a11.163 11.163 0 0 1-2.687 2.346 13.2 13.2 0 0 1-3.382 1.514 13.364 13.364 0 0 1-3.723.526"/>
                <path data-name="패스 1651" d="M36.481 24.547a12.861 12.861 0 0 1-4.93-.934 12.321 12.321 0 0 1-6.681-6.528 11.927 11.927 0 0 1-.969-4.812 11.929 11.929 0 0 1 .969-4.811A12.321 12.321 0 0 1 31.551.934 12.861 12.861 0 0 1 36.481 0a12.991 12.991 0 0 1 4.947.934 12.309 12.309 0 0 1 4.012 2.618 12.022 12.022 0 0 1 3.621 8.721A12.022 12.022 0 0 1 45.44 21a12.309 12.309 0 0 1-4.012 2.618 12.991 12.991 0 0 1-4.947.934m0-4.522a7.363 7.363 0 0 0 2.992-.595 7.43 7.43 0 0 0 3.978-4.1 8.089 8.089 0 0 0 .578-3.061 8.041 8.041 0 0 0-.578-3.074 7.469 7.469 0 0 0-3.978-4.08 7.38 7.38 0 0 0-2.992-.6 7.292 7.292 0 0 0-2.958.6 7.469 7.469 0 0 0-3.978 4.08 7.95 7.95 0 0 0-.578 3.043 8.181 8.181 0 0 0 .578 3.094 7.43 7.43 0 0 0 3.978 4.1 7.275 7.275 0 0 0 2.958.595"/>
                <path data-name="패스 1652" d="M62.627 24.514a11.48 11.48 0 0 1-5.593-1.292 8.952 8.952 0 0 1-3.655-3.688 11.694 11.694 0 0 1-1.292-5.627V.374h4.931v13.533a7.02 7.02 0 0 0 .7 3.212 4.929 4.929 0 0 0 1.973 2.108 5.862 5.862 0 0 0 2.974.731 5.779 5.779 0 0 0 2.958-.731 4.968 4.968 0 0 0 1.955-2.108 7.033 7.033 0 0 0 .7-3.212V.374h4.895v13.533a11.613 11.613 0 0 1-1.298 5.593 9.067 9.067 0 0 1-3.655 3.7 11.363 11.363 0 0 1-5.593 1.309"/>
                <path data-name="패스 1653" d="M77.111 24.174V.374h11.934a8.643 8.643 0 0 1 4.131.952 7.143 7.143 0 0 1 2.805 2.635A7.362 7.362 0 0 1 97 7.853a7.082 7.082 0 0 1-1.02 3.775 7.161 7.161 0 0 1-2.822 2.618 8.672 8.672 0 0 1-4.114.952h-7v8.976zm4.93-13.056H88.5a3.659 3.659 0 0 0 2.567-.885 3.021 3.021 0 0 0 .969-2.345 3.062 3.062 0 0 0-.969-2.38 3.663 3.663 0 0 0-2.567-.884h-6.46z"/>
                <path data-name="패스 1654" d="M111.927 24.547a12.861 12.861 0 0 1-4.93-.934 12.321 12.321 0 0 1-6.681-6.528 11.927 11.927 0 0 1-.969-4.812 11.929 11.929 0 0 1 .969-4.811A12.321 12.321 0 0 1 107 .934 12.861 12.861 0 0 1 111.927 0a12.991 12.991 0 0 1 4.947.934 12.309 12.309 0 0 1 4.012 2.618 12.022 12.022 0 0 1 3.621 8.721A12.022 12.022 0 0 1 120.886 21a12.309 12.309 0 0 1-4.012 2.618 12.991 12.991 0 0 1-4.947.934m0-4.522a7.363 7.363 0 0 0 2.992-.595 7.43 7.43 0 0 0 3.978-4.1 8.089 8.089 0 0 0 .578-3.061A8.041 8.041 0 0 0 118.9 9.2a7.469 7.469 0 0 0-3.978-4.08 7.38 7.38 0 0 0-2.992-.6 7.292 7.292 0 0 0-2.958.6 7.469 7.469 0 0 0-3.978 4.08 7.95 7.95 0 0 0-.578 3.043 8.181 8.181 0 0 0 .578 3.094 7.43 7.43 0 0 0 3.978 4.1 7.275 7.275 0 0 0 2.958.595"/>
                <path data-name="패스 1655" d="M127.906 24.174V.374h4.694l11.83 15.368V.374h4.624v23.8H144.7L132.564 8.262v15.912z"/>
            </g>
        </g>
    </g>
</svg>
