<svg xmlns="http://www.w3.org/2000/svg" width="12.516" height="19.533" viewBox="0 0 12.516 19.533">
    <defs>
        <clipPath id="t0niqqqoxa">
            <path data-name="Rectangle 1891" style="fill:none" d="M0 0h12.516v19.533H0z"/>
        </clipPath>
        <clipPath id="huv33lrm2b">
            <path data-name="Rectangle 1890" style="fill:none" d="M0 0h10.612v17.557H0z"/>
        </clipPath>
    </defs>
    <g data-name="Group 1486">
        <g data-name="Group 1485" style="clip-path:url(#t0niqqqoxa)">
            <g data-name="Group 1484" style="opacity:.58">
                <g data-name="Group 1483">
                    <g data-name="Group 1482" style="clip-path:url(#huv33lrm2b)" transform="translate(1.904 1.977)">
                        <path data-name="Path 1451" d="M4.7 16.739c1.736-.285 3.717-1.055 5.541-4.018a13.729 13.729 0 0 0 1.693-6.446c.155-2.551.241-4.6.241-4.6S5.831 3.416 3.312 7.509c-1.77 2.876-2.013 5.238-1.521 7.154 0 0 1.288 2.344 2.913 2.077" transform="translate(-1.567 -1.68)" style="fill:#8ce5a5"/>
                    </g>
                </g>
            </g>
            <path data-name="Path 1452" d="M.724 13.482c-.493-1.915-.25-4.277 1.521-7.153C4.764 2.236 11.112.5 11.112.5s-.086 2.046-.242 4.6a13.728 13.728 0 0 1-1.692 6.446c-1.824 2.963-3.785 4.11-5.541 4.018" transform="translate(.716 .716)" style="stroke:#000;stroke-linecap:round;stroke-linejoin:round;fill:none"/>
            <path data-name="Path 1453" d="M8.1 7.036S4 10.711 1.883 19.885" transform="translate(.283 -1.609)" style="stroke:#000;stroke-linecap:round;stroke-linejoin:round;fill:none"/>
            <path data-name="Line 954" transform="translate(4.025 8.314)" style="stroke:#000;stroke-linecap:round;stroke-linejoin:round;fill:none" d="M.699 2.194 0 0"/>
            <path data-name="Line 955" transform="translate(3.685 12.459)" style="stroke:#000;stroke-linecap:round;stroke-linejoin:round;fill:none" d="M0 .794 2.877 0"/>
            <path data-name="Line 956" transform="translate(6.355 7.978)" style="stroke:#000;stroke-linecap:round;stroke-linejoin:round;fill:none" d="M0 .197 1.777 0"/>
        </g>
    </g>
</svg>
