<svg xmlns="http://www.w3.org/2000/svg" width="23" height="20.204" viewBox="0 0 23 20.204">
    <g style="opacity:.9" data-name="*ic_heart">
        <path d="m47.069 29.184-.237-.235C41.214 23.144 38.079 19.8 37.37 18.8a5.294 5.294 0 0 1-1.3-3.167 5.629 5.629 0 0 1 5.855-5.454c1.6 0 3.312 1.056 5.145 3.108 1.833-2.053 3.548-3.108 5.145-3.108a5.7 5.7 0 0 1 5.855 5.454 5.618 5.618 0 0 1-1.419 3.225c-.769.938-3.9 4.34-9.344 10.086zm-5.145-18.473a5.077 5.077 0 0 0-5.263 4.867 5.011 5.011 0 0 0 1.183 2.873c.71.938 3.785 4.281 9.226 9.852 5.323-5.571 8.4-8.914 9.107-9.852a4.72 4.72 0 0 0 1.3-2.815 5.077 5.077 0 0 0-5.263-4.867c-1.479 0-3.134 1.056-4.909 3.167l-.237.235-.237-.235c-1.774-2.17-3.43-3.225-4.908-3.225z" transform="translate(-35.569 -9.684)" style="stroke:#000" data-name="*ic_heart"/>
    </g>
</svg>
