<svg xmlns="http://www.w3.org/2000/svg" width="22" height="24.444" viewBox="0 0 22 24.444">
    <g data-name="*ic_share">
        <path data-name="Path 190" d="M17.926 0a4.022 4.022 0 0 0-4.074 3.943 3.8 3.8 0 0 0 .217 1.269L7.091 9.6a4.12 4.12 0 0 0-3.018-1.319 3.945 3.945 0 1 0 0 7.885 4.118 4.118 0 0 0 3.03-1.318l6.964 4.386a3.74 3.74 0 0 0-.217 1.269 4.076 4.076 0 1 0 4.074-3.943 4.12 4.12 0 0 0-3.018 1.318l-6.977-4.386a3.808 3.808 0 0 0 .217-1.269 3.738 3.738 0 0 0-.217-1.269l6.964-4.386a4.118 4.118 0 0 0 3.03 1.318 3.945 3.945 0 1 0 0-7.885zm0 1.577a2.367 2.367 0 1 1-2.445 2.366 2.394 2.394 0 0 1 2.445-2.366zM4.074 9.857a2.367 2.367 0 1 1-2.445 2.366 2.394 2.394 0 0 1 2.445-2.366zm13.852 8.28a2.367 2.367 0 1 1-2.445 2.366 2.394 2.394 0 0 1 2.445-2.367z"/>
    </g>
</svg>
