<svg data-name="*ic_header_search" xmlns="http://www.w3.org/2000/svg" width="19.748" height="18.849" viewBox="0 0 19.748 18.849">
    <g data-name="Path 113" style="fill:none">
        <path d="M8.1 0A8.1 8.1 0 1 1 0 8.1 8.1 8.1 0 0 1 8.1 0z" style="stroke:none"/>
        <path d="M8.096 1.2A6.904 6.904 0 0 0 1.2 8.096a6.904 6.904 0 0 0 6.896 6.896 6.904 6.904 0 0 0 6.896-6.896A6.904 6.904 0 0 0 8.096 1.2m0-1.2a8.096 8.096 0 1 1 0 16.192A8.096 8.096 0 0 1 8.096 0z" style="fill:#000;stroke:none"/>
    </g>
    <path data-name="Path 114" d="m1 1 5 5" transform="translate(12.9 12)" style="stroke:#000;stroke-linecap:round;stroke-width:1.2px;fill:none"/>
</svg>
