<svg xmlns="http://www.w3.org/2000/svg" width="19" height="14.25" viewBox="0 0 19 14.25">
  <g id="ic_filter" transform="translate(-494 -368.375)">
    <path id="_ic_filter" data-name="*ic_filter" d="M81.313,72.375a3.168,3.168,0,0,1,6.134,0H88.2a.792.792,0,1,1,0,1.583h-.753a3.168,3.168,0,0,1-6.134,0H70.784a.792.792,0,1,1,0-1.583Zm-9.666,7.916a3.168,3.168,0,0,1,6.134,0H88.2a.792.792,0,1,1,0,1.583H77.781a3.168,3.168,0,0,1-6.134,0h-.863a.792.792,0,1,1,0-1.583Zm3.067,2.375a1.583,1.583,0,1,0-1.583-1.583A1.583,1.583,0,0,0,74.714,82.666ZM84.38,74.75A1.583,1.583,0,1,0,82.8,73.167,1.583,1.583,0,0,0,84.38,74.75Z" transform="translate(424.008 298.375)" fill-rule="evenodd"/>
  </g>
</svg>
