<svg xmlns="http://www.w3.org/2000/svg" width="130" height="90" viewBox="0 0 130 90">
    <path data-name="Rectangle 1611" style="fill:#f8f8f8" d="M0 0h130v90H0z"/>
    <path data-name="Rectangle 2030" transform="translate(32.999 13)" style="opacity:.5;fill:none" d="M0 0h65v65H0z"/>
    <path data-name="Path 1632" d="m84.818 36.288-.565-8.232a.608.608 0 0 0-.643-.643h-8.811v-2.637a9.776 9.776 0 1 0-19.551 0v2.637h-8.811a.608.608 0 0 0-.643.643l-.565 8.232-3.551 37.173a1.208 1.208 0 0 0 .129.515c.064.129.322.193.45.193h45.469a.5.5 0 0 0 .45-.193.7.7 0 0 0 .129-.515zM56.534 24.776a8.49 8.49 0 0 1 16.979 0v2.638H56.535zM43.029 72.882l3.487-36.465.565-7.717h8.168v5.66a.65.65 0 1 0 1.286 0v-5.656h16.979v5.66a.644.644 0 1 0 1.286 0v-5.66h8.168l.565 7.717 3.487 36.465z"/>
    <g data-name="Ellipse 309" transform="translate(53.499 33.582)" style="fill:#fff;stroke:#00bab4;stroke-width:1.3px">
        <circle cx="2.5" cy="2.5" r="2.5" style="stroke:none"/>
        <circle cx="2.5" cy="2.5" r="1.85" style="fill:none"/>
    </g>
    <g data-name="Ellipse 310" transform="translate(71.499 33.582)" style="fill:#fff;stroke:#00bab4;stroke-width:1.3px">
        <circle cx="2.5" cy="2.5" r="2.5" style="stroke:none"/>
        <circle cx="2.5" cy="2.5" r="1.85" style="fill:none"/>
    </g>
    <path data-name="Line 1052" transform="translate(42.499 65.5)" style="stroke:#000;stroke-width:1.2px;fill:none" d="M0 0h45"/>
</svg>
