<svg xmlns="http://www.w3.org/2000/svg" width="12.301" height="11.127" viewBox="0 0 12.301 11.127">
    <path data-name="패스 1087" d="M100.094 56.74h1.686a.321.321 0 0 1 .321.321v.439a3.444 3.444 0 0 0 1.936-3.734.32.32 0 0 1 .209-.376l1.3-.442a.32.32 0 0 1 .394.169 6.016 6.016 0 0 1 .549 3.947h3.275a.321.321 0 0 1 .314.384l-1.2 5.795a.321.321 0 0 1-.319.282h-4.275c-.119 0-1.92-.613-2.187-.7v.6a.321.321 0 0 1-.321.321h-1.686a2.012 2.012 0 0 1-2.007-2.007v-2.99a2.012 2.012 0 0 1 2.007-2.007zm2.007 1.448v3.959l2.237.734h3.962l1.071-5.178h-3.319a.321.321 0 0 1-.29-.46 4.718 4.718 0 0 0-.287-3.6l-.779.264a4 4 0 0 1-2.6 4.279zm-.642-.806h-1.365a1.37 1.37 0 0 0-1.365 1.365v2.99a1.37 1.37 0 0 0 1.365 1.365h1.365z" transform="translate(-97.937 -52.766)" style="stroke:#000;stroke-width:.3px"/>
</svg>
