<svg xmlns="http://www.w3.org/2000/svg" width="37.5" height="32.896" viewBox="0 0 37.5 32.896">
  <defs>
    <style>
      .cls-1 {
        opacity: 0.9;
      }

      .cls-2 {
        fill: #fff;
        stroke: #fff;
        stroke-width: 1.5px;
      }
    </style>
  </defs>
  <g id="_ic_heart" data-name="*ic_heart" class="cls-1" transform="translate(0.75 0.75)">
    <path id="ic_heart" class="cls-2" d="M54.068,41.275l-.387-.384c-9.193-9.5-14.322-14.97-15.483-16.6a8.663,8.663,0,0,1-2.129-5.182c0-4.99,4.258-8.924,9.581-8.924,2.613,0,5.419,1.727,8.419,5.086,3-3.359,5.806-5.086,8.419-5.086,5.226,0,9.581,4.03,9.581,8.924,0,2.111-1.355,4.03-2.323,5.278-1.258,1.535-6.387,7.1-15.29,16.505ZM45.65,11.047c-4.742,0-8.613,3.551-8.613,7.965a8.2,8.2,0,0,0,1.935,4.7c1.161,1.535,6.194,7.005,15.1,16.121,8.71-9.116,13.742-14.586,14.9-16.121,1.452-1.823,2.129-3.263,2.129-4.606,0-4.414-3.871-7.965-8.613-7.965-2.419,0-5.129,1.727-8.032,5.182l-.387.384-.387-.384c-2.9-3.551-5.612-5.278-8.032-5.278Z" transform="translate(-36.069 -10.184)"/>
  </g>
</svg>
