<svg id="Group_1790" data-name="Group 1790" xmlns="http://www.w3.org/2000/svg" width="20.498" height="18.606" viewBox="0 0 20.498 18.606">
  <path id="Path_1914" data-name="Path 1914" d="M20.5,5.4a5.683,5.683,0,0,0-1.671-3.832A5.34,5.34,0,0,0,15.048,0h-.123C13.476,0,11.9.95,10.251,2.816,8.6.949,7.025,0,5.574,0H5.522L5.381,0A5.267,5.267,0,0,0,1.626,1.577,5.6,5.6,0,0,0,0,5.412v.021A5.407,5.407,0,0,0,1.233,8.566c.637.924,3.217,3.807,8.616,9.627l0,0,0,0,.215.222.18.187.18-.187.21-.219,0,0,0,0c4.552-5.008,7.732-8.583,8.507-9.567A5.635,5.635,0,0,0,20.5,5.436V5.4ZM18.3,7.586h-.03l-.15.206c-.644.887-3.507,4.118-7.878,8.891-5.017-5.36-7.432-8.137-7.976-8.89l-.018-.024a4.314,4.314,0,0,1-.963-2.416,4.181,4.181,0,0,1,4.268-4.1h.018c1.191,0,2.6.991,4.069,2.864l.016.021.592.612.575-.594.03-.034c1.482-1.838,2.891-2.81,4.072-2.81h.018a4.18,4.18,0,0,1,4.267,4.1,4.1,4.1,0,0,1-.91,2.178"/>
</svg>
