<svg xmlns="http://www.w3.org/2000/svg" width="50" height="50" viewBox="0 0 50 50">
    <defs>
        <clipPath id="cbvcje0dta">
            <path data-name="Rectangle 1921" style="fill:none" d="M0 0h31.359v25.921H0z"/>
        </clipPath>
    </defs>
    <g data-name="*ic">
        <g data-name="Ellipse 273" style="stroke:#000;fill:none">
            <circle cx="25" cy="25" r="25" style="stroke:none"/>
            <circle cx="25" cy="25" r="24.5" style="fill:none"/>
        </g>
        <g data-name="*ic">
            <g data-name="Group 1576" transform="translate(9.3 12)" style="clip-path:url(#cbvcje0dta)">
                <path data-name="Path 1550" d="M24.469 13.955v-3.564l2.714 2.709 3.945-4.717L23.6.9 19.311.5h-.116a3.442 3.442 0 0 1-3.38 2.795A3.443 3.443 0 0 1 12.434.5h-.116L8.024.9.5 8.388 4.445 13.1l2.715-2.709v3.564" transform="translate(-.134 -.135)" style="stroke-linecap:round;stroke-linejoin:round;stroke:#000;fill:none"/>
                <path data-name="Path 1551" d="M32.839 18.128h1.346l-.673 1.166-.673 1.165-.673-1.165-.673-1.166z" transform="translate(-8.471 -4.876)" style="fill-rule:evenodd"/>
                <path data-name="Path 1552" d="M22.186 33.123v1.346L21.02 33.8l-1.165-.673 1.165-.673 1.166-.673z" transform="translate(-5.341 -8.548)" style="fill-rule:evenodd"/>
                <path data-name="Path 1553" d="M30.335 25.086v6.374h-8.151" transform="translate(-5.967 -6.748)" style="stroke-linecap:round;stroke-linejoin:round;stroke:#000;fill:none"/>
                <path data-name="Path 1554" d="M9.247 23.836H7.9l.673-1.166.674-1.17.673 1.17.673 1.166z" transform="translate(-2.125 -5.785)" style="fill-rule:evenodd"/>
                <path data-name="Path 1555" d="M14.411 31.337h-4.67v-7.26" transform="translate(-2.62 -6.476)" style="stroke-linecap:round;stroke-linejoin:round;stroke:#000;fill:none"/>
            </g>
        </g>
    </g>
</svg>
