<svg data-name="wizwid logo" xmlns="http://www.w3.org/2000/svg" width="145" height="18.676" viewBox="0 0 145 18.676">
    <path data-name="Path 1" d="M341.205 120.47h-4.7l8.325 18.1h1.539l5.64-11.379 5.871 11.292h1.5l7.943-18.231h-4.489l-4.259 9.763-4.95-9.645h-3.338l-4.834 9.762z" transform="translate(-336.509 -119.898)" style="fill:#fff"/>
    <path data-name="Path 2" d="M440.7 120.47H436l8.325 18.1h1.539l5.641-11.379 5.871 11.292h1.5l7.943-18.231h-4.489l-4.259 9.763-4.949-9.645h-3.338l-4.834 9.762z" transform="translate(-361.649 -119.898)" style="fill:#fff"/>
    <path data-name="Path 3" d="M392.343 120.409h-4.028l-4.259 18.113h3.914z" transform="translate(-348.522 -119.935)" style="fill:#fff"/>
    <path data-name="Path 4" d="M492.3 120.409h-4.029l-4.259 18.113h3.914z" transform="translate(-373.779 -119.935)" style="fill:#fff"/>
    <path data-name="Path 5" d="M421.691 120.1h-16.92v2.941h9.9l-10.13 15.173h17.266v-2.94h-10.13z" transform="translate(-353.698 -119.862)" style="fill:#fff"/>
    <path data-name="Path 6" d="m513.948 119.792-7.6.118v18.348h9.67s8.4-.353 8.4-9.645-10.47-8.821-10.47-8.821zm2.417 14.938h-5.411v-11.409l-.23-.235h4.6s4.719-.235 4.719 5.528-3.678 6.115-3.678 6.115z" transform="translate(-379.422 -119.788)" style="fill:#fff"/>
</svg>
