<svg xmlns="http://www.w3.org/2000/svg" width="38" height="38" viewBox="0 0 38 38">
    <g transform="translate(-728 -575)">
        <rect data-name="Rectangle 1699" width="38" height="38" rx="19" transform="translate(728 575)" style="fill:#f1f1f1"/>
        <path data-name="Path 1057" d="M258.765 112h-9.4a1.229 1.229 0 0 0-1.282 1.165v15.59a1.23 1.23 0 0 0 1.282 1.165h9.435a1.229 1.229 0 0 0 1.282-1.165v-15.59a1.282 1.282 0 0 0-1.317-1.165zm.625 16.755a.6.6 0 0 1-.625.567h-9.4a.6.6 0 0 1-.625-.567v-15.59a.6.6 0 0 1 .625-.568h9.435a.6.6 0 0 1 .625.568v15.59zm-.789-3.434a.3.3 0 0 1-.329.3h-8.384a.3.3 0 1 1 0-.6h8.384a.316.316 0 0 1 .328.299zm0-10.065a.3.3 0 0 1-.329.3h-8.384a.3.3 0 1 1 0-.6h8.384a.316.316 0 0 1 .328.299zm-4.537 11.081a1.23 1.23 0 0 0-1.282 1.165 1.288 1.288 0 0 0 2.564 0 1.23 1.23 0 0 0-1.282-1.166zm0 1.732a.57.57 0 1 1 .625-.568.6.6 0 0 1-.625.567z" transform="translate(492.919 473.041)" style="stroke:#000;stroke-width:.2px"/>
    </g>
</svg>
