<svg xmlns="http://www.w3.org/2000/svg" width="20" height="20" viewBox="0 0 20 20">
    <defs>
        <clipPath id="xd1oxl3x6a">
            <path data-name="Rectangle 1572" style="fill:none" d="M0 0h20v20H0z"/>
        </clipPath>
    </defs>
    <g data-name="*radio_비활성">
        <g data-name="Mask Group 1" style="clip-path:url(#xd1oxl3x6a)">
            <g data-name="Path 1056" style="fill:#fff">
                <path d="M10 19c-4.963 0-9-4.037-9-9s4.037-9 9-9 9 4.037 9 9-4.037 9-9 9z" style="stroke:none"/>
                <path d="M10 2c-4.411 0-8 3.589-8 8s3.589 8 8 8 8-3.589 8-8-3.589-8-8-8m0-2c5.523 0 10 4.477 10 10s-4.477 10-10 10S0 15.523 0 10 4.477 0 10 0z" style="fill:#ddd;stroke:none"/>
            </g>
            <path data-name="Path 1055" d="M4.545 0A4.545 4.545 0 1 1 0 4.545 4.545 4.545 0 0 1 4.545 0z" transform="translate(5.455 5.455)" style="fill:#ddd"/>
        </g>
    </g>
</svg>
