<svg xmlns="http://www.w3.org/2000/svg" width="50" height="50" viewBox="0 0 50 50">
    <path data-name="Path 971" d="M50 25A25 25 0 1 1 25 0a25 25 0 0 1 25 25"/>
    <g data-name="Group 908">
        <path data-name="Path 967" d="M26.529 21.144a4.063 4.063 0 0 1 1.988-3.428 4.345 4.345 0 0 0-3.366-1.792c-1.436-.141-2.8.829-3.527.829s-1.853-.8-3.04-.782a4.523 4.523 0 0 0-3.812 2.258c-1.624 2.759-.417 6.849 1.168 9.085.773 1.1 1.694 2.325 2.9 2.281 1.169-.044 1.611-.738 3.021-.738s1.807.738 3.041.719c1.255-.026 2.051-1.121 2.818-2.216A9.959 9.959 0 0 0 29 24.794a3.989 3.989 0 0 1-2.471-3.651" transform="translate(4 2.824)" style="fill:#fff"/>
        <path data-name="Path 968" d="M24.888 14.312a4.306 4.306 0 0 0 1.023-3.136 4.4 4.4 0 0 0-2.892 1.487 4.117 4.117 0 0 0-1.044 3.037 3.644 3.644 0 0 0 2.913-1.393" transform="translate(3.338 2.824)" style="fill:#fff"/>
    </g>
</svg>
