<svg xmlns="http://www.w3.org/2000/svg" width="60.142" height="60" viewBox="0 0 60.142 60">
  <defs>
    <style>
      .cls-1 {
        fill: none;
        opacity: 0.4;
      }

      .cls-2, .cls-3 {
        fill: #fff;
      }

      .cls-2 {
        stroke: #000;
        stroke-width: 2px;
      }

      .cls-4 {
        fill: #00bab4;
      }
    </style>
  </defs>
  <g id="배송중" transform="translate(-1287.775 -2271.593)">
    <rect id="Rectangle_1841" data-name="Rectangle 1841" class="cls-1" width="59.938" height="60" transform="translate(1287.836 2271.593)"/>
    <path id="Path_1150" data-name="Path 1150" class="cls-2" d="M56.163,36.54V14.6H69.885l7.181,10.635V36.54Z" transform="translate(1269.85 2279.923)"/>
    <rect id="Rectangle_1874" data-name="Rectangle 1874" class="cls-2" width="31.155" height="31.87" transform="translate(1294.92 2284.593)"/>
    <path id="Path_1156" data-name="Path 1156" class="cls-2" d="M31,48.237a4.5,4.5,0,1,1,4.5-4.5,4.5,4.5,0,0,1-4.5,4.5" transform="translate(1278.383 2272.727)"/>
    <path id="Path_1180" data-name="Path 1180" class="cls-2" d="M31,48.237a4.5,4.5,0,1,1,4.5-4.5,4.5,4.5,0,0,1-4.5,4.5" transform="translate(1305.464 2272.727)"/>
    <g id="Group_1212" data-name="Group 1212" transform="translate(1287.775 2289.361)">
      <rect id="Rectangle_1875" data-name="Rectangle 1875" class="cls-3" width="15.416" height="15.4" transform="translate(0)"/>
      <rect id="Rectangle_1876" data-name="Rectangle 1876" class="cls-4" width="15.415" height="2" transform="translate(0 2)"/>
      <rect id="Rectangle_1877" data-name="Rectangle 1877" class="cls-4" width="13.15" height="2" transform="translate(2.265 6.8)"/>
      <rect id="Rectangle_1878" data-name="Rectangle 1878" class="cls-4" width="9.869" height="2" transform="translate(5.547 11.599)"/>
    </g>
  </g>
</svg>
