<svg xmlns="http://www.w3.org/2000/svg" width="20.3" height="17.781" viewBox="0 0 20.3 17.781">
    <path data-name="*ic_list_heart" d="m46.069 27.6-.215-.215c-5.107-5.323-7.957-8.387-8.6-9.3a4.875 4.875 0 0 1-1.183-2.9 5.136 5.136 0 0 1 5.323-5c1.452 0 3.011.968 4.677 2.849 1.667-1.882 3.226-2.849 4.677-2.849a5.2 5.2 0 0 1 5.323 5 5.171 5.171 0 0 1-1.29 2.957c-.7.86-3.548 3.979-8.494 9.247zm-4.678-16.932a4.632 4.632 0 0 0-4.785 4.462 4.615 4.615 0 0 0 1.075 2.634c.645.86 3.441 3.925 8.387 9.032 4.839-5.107 7.634-8.172 8.279-9.032a4.345 4.345 0 0 0 1.183-2.581 4.632 4.632 0 0 0-4.785-4.462c-1.344 0-2.849.968-4.462 2.9l-.215.215-.215-.215c-1.613-1.989-3.118-2.957-4.462-2.957z" transform="translate(-35.919 -10.034)" style="stroke:#000;stroke-width:.3px"/>
</svg>
