<svg xmlns="http://www.w3.org/2000/svg" width="46" height="56" viewBox="0 0 46 56">
    <g transform="translate(-54 -205)">
        <rect data-name="Rectangle 1680" width="46" height="56" rx="4" transform="translate(54 205)" style="fill:#79c7ff"/>
        <text transform="translate(77 223)" style="font-size:7px;font-family:RedHatDisplay-Regular,Red Hat Display;letter-spacing:.04em;fill:#fff"><tspan x="-11.97" y="0">SILVER</tspan></text>
        <path data-name="Path 1322" d="M778.814 71.668a9.515 9.515 0 0 1-3.353-.619 9.875 9.875 0 0 1-2.954-1.716l1.916-2.495a9.882 9.882 0 0 0 2.355 1.487 5.907 5.907 0 0 0 2.295.449 4.993 4.993 0 0 0 1.357-.16 1.888 1.888 0 0 0 .858-.469 1.013 1.013 0 0 0 .3-.728 1.047 1.047 0 0 0-.439-.9 3.725 3.725 0 0 0-1.5-.5l-3.074-.539a4.485 4.485 0 0 1-2.614-1.3 3.6 3.6 0 0 1-.918-2.535 3.952 3.952 0 0 1 .688-2.335 4.311 4.311 0 0 1 1.976-1.5 8.179 8.179 0 0 1 3.063-.519 9.814 9.814 0 0 1 3.133.529 8.687 8.687 0 0 1 2.734 1.467l-1.816 2.535a7.041 7.041 0 0 0-4.291-1.656 4.3 4.3 0 0 0-1.207.15 1.793 1.793 0 0 0-.778.419.884.884 0 0 0-.269.649.923.923 0 0 0 .389.8 3.242 3.242 0 0 0 1.267.439l2.894.479a5.524 5.524 0 0 1 3.063 1.337 3.51 3.51 0 0 1 1.048 2.634 4.078 4.078 0 0 1-.739 2.445 4.7 4.7 0 0 1-2.115 1.587 8.687 8.687 0 0 1-3.273.559" transform="translate(-701.507 179.335)" style="fill:#fff"/>
    </g>
</svg>
