<svg xmlns="http://www.w3.org/2000/svg" width="46" height="56" viewBox="0 0 46 56">
    <g transform="translate(-54 -205)">
        <rect data-name="Rectangle 1680" width="46" height="56" rx="4" transform="translate(54 205)" style="fill:#d6ae3f"/>
        <text transform="translate(77 223)" style="font-size:7px;font-family:RedHatDisplay-Regular,Red Hat Display;letter-spacing:.04em;fill:#fff"><tspan x="-10.644" y="0">GOLD</tspan></text>
        <path data-name="Path 1321" d="M543.9 71.507a7.7 7.7 0 0 1-2.914-.545 7.368 7.368 0 0 1-2.369-1.526 7.136 7.136 0 0 1-1.585-7.888 7.134 7.134 0 0 1 3.915-3.806 7.647 7.647 0 0 1 2.894-.545 7.849 7.849 0 0 1 3.33.724 6.81 6.81 0 0 1 2.557 1.992l-2.4 2.16a4.479 4.479 0 0 0-1.556-1.308 4.3 4.3 0 0 0-1.932-.436 3.8 3.8 0 0 0-1.536.307 3.88 3.88 0 0 0-1.229.842 3.731 3.731 0 0 0-.813 1.268 4.364 4.364 0 0 0-.287 1.606 4.3 4.3 0 0 0 .3 1.615 3.787 3.787 0 0 0 .842 1.288 3.951 3.951 0 0 0 2.844 1.159 3.793 3.793 0 0 0 1.477-.277 3.351 3.351 0 0 0 1.14-.773 2.836 2.836 0 0 0 .674-1.13h-3.746v-2.952h7.433v.991a7.732 7.732 0 0 1-.525 2.884 7.064 7.064 0 0 1-1.467 2.3 6.516 6.516 0 0 1-2.23 1.516 7.264 7.264 0 0 1-2.814.535" transform="translate(-466.471 179.275)" style="fill:#fff"/>
    </g>
</svg>
