<svg xmlns="http://www.w3.org/2000/svg" width="46" height="56" viewBox="0 0 46 56">
    <g transform="translate(-54 -205)">
        <rect data-name="Rectangle 1680" width="46" height="56" rx="4" transform="translate(54 205)"/>
        <text transform="translate(77 223)" style="font-size:8px;font-family:RedHatDisplay-Regular,Red Hat Display;letter-spacing:.04em;fill:#fff"><tspan x="-13.716" y="0">BLACK</tspan></text>
        <path data-name="Path 664" d="M62.712 72.492V58.309h7.031a6.093 6.093 0 0 1 2.563.506 4.183 4.183 0 0 1 1.732 1.408 3.545 3.545 0 0 1 .628 2.077 3.224 3.224 0 0 1-.436 1.631 3.983 3.983 0 0 1-1.185 1.287 4.17 4.17 0 0 1 1.51 1.317 3.081 3.081 0 0 1 .557 1.783 3.836 3.836 0 0 1-.628 2.178 4.169 4.169 0 0 1-1.763 1.469 6.192 6.192 0 0 1-2.634.527zm3.485-8.53h3.323a1.8 1.8 0 0 0 1.216-.384 1.386 1.386 0 0 0 0-2.037 1.832 1.832 0 0 0-1.216-.375H66.2zm0 5.673h3.627a1.919 1.919 0 0 0 1.287-.405 1.495 1.495 0 0 0 0-2.188 1.92 1.92 0 0 0-1.287-.405H66.2z" transform="translate(8.288 178.512)" style="fill:#fff"/>
    </g>
</svg>
